 <svg version="1.1" id="Layer_1" xmlns="http://www.w3.org/2000/svg" xmlns:xlink="http://www.w3.org/1999/xlink" x="0px" y="0px"
	 viewBox="0 0 285.23 285.23" style="enable-background:new 0 0 285.23 285.23;" xml:space="preserve">
<style type="text/css">
	.st0{fill:#FED595;}
	.st1{fill:none;stroke:#FED595;stroke-width:9.5526;stroke-miterlimit:10;}
	.st2{fill:none;stroke:#FED595;stroke-width:1.9105;stroke-miterlimit:10;}
</style>
<g>
	<g>
		<g>
			<polygon class="st0" points="141.54,142.92 141.76,142.47 141.53,142.03 141.09,141.81 140.65,142.03 			"/>
			<polygon class="st0" points="137.53,172.65 137.53,172.65 135.42,170.32 134.42,166.89 134.08,163.02 134.62,158.71
				135.82,154.18 137.35,149.76 139.44,145.9 141.54,142.92 140.65,142.03 138.34,145.23 136.24,149.09 134.49,153.73
				133.29,158.27 132.75,163.02 133.09,167.33 134.32,170.98 136.65,173.53 136.65,173.53 			"/>
			<polygon class="st0" points="140.29,168.79 140.95,169.45 142.5,169.68 143.5,170.46 143.72,171.35 143.61,172.34 142.73,173.44
				141.74,173.77 139.86,173.66 137.53,172.65 136.65,173.53 139.42,174.98 141.74,175.1 143.62,174.33 144.72,173.01
				145.05,171.35 144.38,169.58 143.16,168.58 140.95,168.13 141.61,168.79 140.95,168.13 140.51,168.35 140.29,168.79
				140.51,169.23 140.95,169.45 			"/>
			<polygon class="st0" points="152.99,166.06 152.99,166.06 150.89,164.62 148.68,163.73 146.57,163.61 144.47,163.94
				143.04,164.71 141.6,165.7 140.83,167.13 140.29,168.79 141.61,168.79 141.94,167.8 142.71,166.81 143.7,165.81 144.92,165.26
				146.58,164.94 148.24,165.05 150.23,165.72 152.11,166.94 152.11,166.94 			"/>
			<polygon class="st0" points="148.61,178.88 148.94,180.1 151.38,179.44 153.25,178.23 154.68,176.57 155.79,174.59
				156.22,172.38 155.88,170.05 154.77,167.84 152.99,166.06 152.11,166.94 153.89,168.72 154.56,170.49 154.89,172.37
				154.46,174.14 153.8,175.69 152.36,177.34 150.71,178.33 148.72,178.99 149.06,180.21 148.72,178.99 148.39,179.32
				148.28,179.65 148.5,180.1 148.94,180.1 			"/>
			<polygon class="st0" points="168.8,198.4 170.12,198.19 170.44,194.98 170.43,192.11 170.1,189.34 169.53,187.02 168.64,185.02
				167.53,183.25 166.42,181.7 164.76,180.7 163.21,179.81 161.33,179.03 159.56,178.58 157.35,178.35 155.24,178.23 153.14,178.34
				151.04,178.44 148.61,178.88 149.06,180.21 151.04,179.77 153.15,179.67 155.25,179.56 157.35,179.68 159.12,179.91
				160.89,180.35 162.55,180.91 164.1,181.8 165.32,182.8 166.65,184.13 167.54,185.68 168.21,187.45 168.77,189.78 169.11,192.1
				169.12,194.98 168.8,198.18 170.12,197.96 168.8,198.18 169.02,198.62 169.46,198.85 169.9,198.63 170.12,198.19 			"/>
			<polygon class="st0" points="159.92,189.53 159.92,189.53 162.02,189.87 163.8,190.31 165.13,191.42 166.23,192.53
				167.12,193.86 167.68,195.3 168.24,196.96 168.8,198.4 170.12,197.96 169.56,196.52 169.01,194.86 168.23,193.2 167.12,191.65
				166.23,190.32 164.45,189.21 162.46,188.54 159.92,188.2 159.92,188.2 			"/>
			<polygon class="st0" points="134.91,183.71 134.91,183.71 137.9,185.81 140.89,187.26 144.21,188.38 147.53,189.05
				150.96,189.39 154.17,189.51 157.16,189.41 159.92,189.53 159.92,188.2 157.15,188.08 154.17,188.18 150.96,188.06
				147.97,187.72 144.65,187.05 141.55,186.16 138.56,184.71 135.79,182.82 135.79,182.82 			"/>
			<polygon class="st0" points="126.65,157.58 125.76,156.69 125.22,161.23 125.23,165.21 125.58,169.08 126.69,172.4
				128.14,175.61 130.14,178.49 132.36,181.15 134.91,183.71 135.79,182.82 133.24,180.27 131.02,177.61 129.24,174.95
				128.02,171.96 126.9,168.64 126.56,165.21 126.55,161.23 127.09,157.14 126.2,156.25 127.09,157.14 127.09,156.7 126.65,156.25
				126.09,156.36 125.76,156.69 			"/>
			<polygon class="st0" points="99.53,148.32 99.53,148.32 100.75,149.76 101.97,150.98 103.3,152.09 104.74,153.09 106.07,154.2
				107.62,155.09 109.06,155.87 110.83,156.54 112.49,157.1 114.15,157.65 116.15,157.88 118.14,158.11 120.02,158.22
				122.12,158.12 124.11,157.9 126.65,157.58 126.2,156.25 124.1,156.58 122.11,156.79 120.01,156.9 118.13,156.78 116.14,156.55
				114.59,156.33 112.93,155.77 111.27,155.21 109.72,154.77 108.28,153.99 106.95,153.32 105.62,152.21 104.18,151.21
				103.07,149.88 101.85,148.66 100.41,147.44 100.41,147.44 			"/>
			<polygon class="st0" points="93.7,123.31 93.7,123.31 93.82,126.08 93.72,129.06 93.84,132.27 94.18,135.7 94.85,139.02
				95.97,142.34 97.42,145.33 99.53,148.32 100.41,147.44 98.52,144.67 97.07,141.68 96.18,138.58 95.51,135.26 95.17,132.27
				95.05,129.06 95.15,126.08 95.03,123.31 95.03,123.31 			"/>
			<polygon class="st0" points="85.16,113.22 84.94,114.54 86.38,115.1 88.04,115.66 89.48,116.22 90.7,117 91.92,118.22
				92.92,119.44 93.36,121.21 93.7,123.31 95.03,123.31 94.69,120.77 94.02,118.78 93.02,117.11 91.58,116.12 90.14,115.12
				88.48,114.34 86.82,113.78 85.38,113.22 85.16,114.55 85.38,113.22 84.93,113.22 84.49,113.66 84.61,114.21 84.94,114.54 			"/>
			<polygon class="st0" points="103.13,134.29 104.35,134.62 104.79,132.19 104.89,130.09 105,127.99 104.88,125.89 104.65,123.67
				104.2,121.9 103.42,120.02 102.54,118.47 101.53,116.81 100.09,115.81 98.32,114.7 96.22,113.7 94,113.25 91.24,112.91
				88.36,112.9 85.16,113.22 85.16,114.55 88.37,114.22 91.24,114.23 93.56,114.57 95.78,115.02 97.66,115.8 99.21,116.69
				100.43,117.91 101.43,119.13 102.32,120.68 102.88,122.34 103.33,124.11 103.55,125.88 103.67,127.98 103.56,130.08
				103.46,132.19 103.02,134.18 104.24,134.51 103.02,134.18 103.02,134.62 103.36,134.95 104.02,134.95 104.35,134.62 			"/>
			<polygon class="st0" points="117.17,130.24 117.17,130.24 115.39,128.46 113.18,127.35 110.86,127.01 108.65,127.45
				106.66,128.55 105,129.98 103.79,131.86 103.13,134.29 104.24,134.51 104.9,132.52 105.89,130.87 107.54,129.43 109.09,128.77
				110.86,128.34 112.74,128.67 114.51,129.34 116.29,131.12 116.29,131.12 			"/>
			<polygon class="st0" points="113.89,142.39 114.55,143.05 116.21,142.51 117.64,141.74 118.52,140.19 119.29,138.76
				119.62,136.66 119.5,134.55 118.61,132.34 117.17,130.24 116.29,131.12 117.51,133 118.18,134.99 118.29,136.65 117.97,138.31
				117.42,139.53 116.54,140.63 115.54,141.4 114.55,141.73 115.21,142.4 114.55,141.73 114.11,141.95 113.89,142.39 114.11,142.84
				114.55,143.05 			"/>
			<polygon class="st0" points="110.58,145.7 110.58,145.7 109.58,143.37 109.46,141.49 109.79,140.5 111,139.73 112,139.62
				112.88,139.84 113.66,140.84 113.89,142.39 115.21,142.4 114.76,140.18 113.77,138.96 111.99,138.29 110.34,138.62 108.9,139.61
				108.13,141.49 108.25,143.81 109.7,146.58 109.7,146.58 			"/>
			<polygon class="st0" points="140.65,142.03 137.67,144.12 133.69,146.1 129.38,147.74 124.63,148.73 120.32,149.27
				116.34,148.81 112.91,147.81 110.58,145.7 109.7,146.58 112.25,148.91 115.9,150.14 120.33,150.59 125.08,150.06 129.83,149.07
				134.36,147.21 138.34,145.23 141.54,142.92 			"/>
			<polygon class="st0" points="141.54,142.92 141.76,142.47 141.53,142.03 141.09,141.81 140.65,142.03 			"/>
			<polygon class="st0" points="103.83,182.84 103.61,182.84 101.73,183.16 100.07,183.71 98.42,184.48 96.65,185.58 97.76,186.69
				99.08,185.59 100.52,185.04 102.18,184.49 104.06,184.17 103.83,184.17 			"/>
			<polygon class="st0" points="115.43,177.45 114.32,177.23 111.56,179.77 108.69,181.3 105.93,182.29 103.83,182.84
				103.83,184.17 106.38,183.62 109.36,182.41 112.45,180.65 115.21,178.12 114.1,177.89 115.21,178.12 115.43,177.67
				115.21,177.23 114.76,177.01 114.32,177.23 			"/>
			<polygon class="st0" points="129.72,186.01 129.72,184.91 128.28,185.23 126.62,185.56 124.63,185.55 122.64,185.1 120.53,184.1
				118.65,182.66 116.87,180.44 115.43,177.45 114.1,177.89 115.77,181.1 117.55,183.76 119.87,185.21 122.2,186.43 124.63,186.88
				126.63,186.89 128.73,186.56 130.38,186.01 130.38,184.91 130.38,186.01 130.6,185.57 130.6,185.13 130.16,184.91 129.72,184.91
							"/>
			<polygon class="st0" points="120.17,174.04 120.17,174.04 120.62,175.81 121.51,177.58 122.29,179.24 123.51,180.91
				124.62,182.46 126.06,183.68 127.84,185.01 129.72,186.01 130.38,184.91 128.5,183.91 126.94,182.8 125.72,181.35 124.39,180.02
				123.39,178.58 122.61,176.92 121.95,175.37 121.5,173.6 121.5,173.6 121.5,173.6 121.17,173.27 120.5,173.27 120.17,173.6
				120.17,174.04 			"/>
			<polygon class="st0" points="119.5,169.39 119.5,169.39 119.61,170.39 119.83,171.72 119.95,172.93 120.17,174.04 121.5,173.6
				121.27,172.49 120.94,171.5 120.94,170.39 120.82,169.4 120.82,169.4 120.82,169.4 120.6,168.95 120.16,168.73 119.72,168.95
				119.5,169.39 			"/>
			<polygon class="st0" points="121.91,162.32 121.02,161.43 120.36,162.98 119.81,164.64 119.6,167.07 119.5,169.39 120.82,169.4
				120.93,167.07 121.14,165.08 121.69,163.43 122.13,162.1 121.24,161.21 122.13,162.1 122.13,161.66 121.9,161.21 121.46,161.21
				121.02,161.43 			"/>
			<polygon class="st0" points="113.17,163.74 113.17,163.74 114.5,163.74 115.83,163.74 116.94,163.75 118.26,163.53
				119.37,163.31 120.25,163.09 121.13,162.65 121.91,162.32 121.24,161.21 120.47,161.54 119.81,161.76 118.92,161.98
				117.81,162.2 116.93,162.42 115.83,162.41 114.5,162.41 113.17,162.41 113.17,162.41 113.17,162.41 112.73,162.63 112.51,163.07
				112.73,163.51 113.17,163.74 			"/>
			<polygon class="st0" points="109.41,163.06 109.41,163.06 110.3,163.28 111.18,163.51 112.18,163.62 113.17,163.74
				113.17,162.41 112.18,162.29 111.62,162.18 110.74,161.96 109.85,161.73 109.85,161.73 109.85,161.73 109.41,161.73
				108.97,162.17 109.08,162.73 109.41,163.06 			"/>
			<polygon class="st0" points="98.33,153.51 97.22,153.51 98.22,155.39 99.55,157.17 100.88,158.72 102.44,159.83 104.1,161.05
				105.76,161.83 107.64,162.61 109.41,163.06 109.85,161.73 108.08,161.29 106.42,160.73 104.76,159.95 103.32,158.95
				101.99,157.62 100.44,156.29 99.32,154.73 98.32,152.85 97.22,152.85 98.32,152.85 97.88,152.63 97.44,152.63 97.11,152.96
				97.22,153.51 			"/>
			<polygon class="st0" points="106,168.91 105.78,167.8 102.79,166.36 100.57,164.58 99.13,162.7 98.13,160.59 97.68,158.6
				97.67,156.61 98,154.95 98.33,153.51 97.22,152.85 96.67,154.51 96.34,156.61 96.35,158.6 96.8,161.03 98.02,163.36
				99.47,165.68 102.13,167.46 105.34,169.13 105.11,168.02 105.34,169.13 105.78,169.13 106.11,168.8 106.11,168.14 105.78,167.8
							"/>
			<polygon class="st0" points="100.39,179.62 100.39,179.62 100.94,177.3 101.93,174.54 103.47,171.67 106,168.91 105.11,168.02
				102.58,170.78 100.82,173.87 99.61,176.85 99.07,179.18 99.07,179.18 			"/>
			<polygon class="st0" points="96.65,185.58 97.76,186.69 98.86,184.92 99.63,183.27 100.07,181.5 100.39,179.62 99.07,179.18
				98.74,181.05 98.3,182.82 97.75,184.26 96.65,185.58 97.76,186.69 96.65,185.58 96.54,186.13 96.65,186.69 97.21,186.8
				97.76,186.69 			"/>
			<polygon class="st0" points="119.16,169.5 119.16,169.5 119.28,170.5 119.39,171.71 119.73,172.93 119.84,174.15 121.83,173.49
				121.5,172.49 121.38,171.5 121.27,170.28 121.15,169.29 121.15,169.29 			"/>
			<polygon class="st0" points="122.02,162.65 120.8,161.21 120.14,162.76 119.59,164.64 119.27,166.96 119.16,169.5 121.15,169.29
				121.26,167.19 121.36,165.09 121.91,163.65 122.35,162.32 121.13,160.88 122.35,162.32 124.22,159.12 121.13,160.88 			"/>
			<polygon class="st0" points="113.06,164.06 113.06,164.06 114.5,163.96 115.83,163.96 117.05,164.08 118.26,163.75
				119.37,163.53 120.36,163.42 121.25,162.98 122.02,162.65 121.13,160.88 120.36,161.21 119.69,161.43 118.92,161.76
				117.81,161.98 116.82,162.09 115.82,162.19 114.5,162.19 113.28,162.08 113.28,162.08 			"/>
			<polygon class="st0" points="110.52,162.84 109.3,163.39 110.3,163.51 111.18,163.73 112.07,163.95 113.06,164.06 113.28,162.08
				112.28,161.96 111.62,161.96 110.74,161.74 109.96,161.4 108.75,161.95 109.96,161.4 108.96,161.29 108.75,161.95 			"/>
			<polygon class="st0" points="119.84,174.15 120.5,172.82 117.63,173.48 115.3,173.36 113.42,172.58 111.76,171.14 110.54,169.48
				109.98,167.59 109.86,165.27 110.52,162.84 108.75,161.95 107.87,165.05 107.99,167.81 108.77,170.36 110.22,172.68
				112.32,174.13 114.87,175.13 117.86,175.47 121.17,174.82 121.83,173.49 121.17,174.82 122.05,174.6 121.83,173.49 			"/>
			<polygon class="st0" points="121.91,162.32 121.02,161.43 120.36,162.98 119.81,164.64 119.6,167.07 119.5,169.39 120.82,169.4
				120.93,167.07 121.14,165.08 121.69,163.43 122.13,162.1 121.24,161.21 122.13,162.1 122.13,161.66 121.9,161.21 121.46,161.21
				121.02,161.43 			"/>
			<polygon class="st0" points="113.84,163.29 113.17,163.74 114.5,163.74 115.83,163.74 116.94,163.75 118.26,163.53
				119.37,163.31 120.25,163.09 121.13,162.65 121.91,162.32 121.24,161.21 120.47,161.54 119.81,161.76 118.92,161.98
				117.81,162.2 116.93,162.42 115.83,162.41 114.5,162.41 113.17,162.41 112.51,162.85 113.17,162.41 112.73,162.63 112.51,163.07
				112.73,163.51 113.17,163.74 			"/>
			<polygon class="st0" points="119.5,169.39 119.93,168.73 118.61,169.17 117.28,168.94 116.17,168.5 115.18,167.72 114.51,166.84
				113.95,165.62 113.73,164.51 113.84,163.29 112.51,162.85 112.4,164.51 112.63,166.05 113.41,167.49 114.08,168.82 115.51,169.6
				116.84,170.27 118.61,170.5 120.38,170.06 120.82,169.4 120.38,170.06 120.71,169.73 120.71,169.06 120.38,168.73 119.93,168.73
							"/>
		</g>
	</g>
	<g>
		<g>
			<polygon class="st0" points="88.86,145.43 89.33,145.27 89.48,144.8 89.33,144.33 88.86,144.17 			"/>
			<polygon class="st0" points="65,163.62 65,163.62 65.15,160.49 66.87,157.35 69.37,154.37 72.8,151.7 76.85,149.35 81.06,147.31
				85.27,146.05 88.86,145.43 88.86,144.17 84.96,144.8 80.75,146.05 76.23,148.09 72.17,150.45 68.43,153.43 65.62,156.72
				63.91,160.17 63.75,163.62 63.75,163.62 			"/>
			<polygon class="st0" points="69.68,162.84 69.68,163.78 70.61,165.04 70.77,166.29 70.3,167.08 69.52,167.7 68.12,167.86
				67.18,167.39 65.94,165.98 65,163.62 63.75,163.62 64.69,166.6 66.25,168.33 68.12,169.11 69.83,168.96 71.24,168.02
				72.02,166.29 71.86,164.72 70.61,162.84 70.61,163.78 70.61,162.84 70.15,162.68 69.68,162.84 69.52,163.31 69.68,163.78 			"/>
			<polygon class="st0" points="80.59,169.9 80.59,169.9 80.13,167.39 79.19,165.19 77.79,163.62 76.07,162.37 74.51,161.9
				72.8,161.58 71.24,162.06 69.68,162.84 70.61,163.78 71.55,163.31 72.8,163.15 74.2,163.15 75.45,163.62 76.85,164.57
				77.94,165.82 78.88,167.7 79.35,169.9 79.35,169.9 			"/>
			<polygon class="st0" points="68.43,175.86 67.81,176.96 69.99,178.21 72.17,178.68 74.36,178.53 76.54,177.9 78.41,176.64
				79.81,174.76 80.59,172.41 80.59,169.9 79.35,169.9 79.35,172.41 78.57,174.13 77.47,175.7 75.92,176.64 74.36,177.27
				72.17,177.43 70.3,176.96 68.43,176.02 67.81,177.11 68.43,176.02 67.96,176.02 67.65,176.17 67.5,176.64 67.81,176.96 			"/>
			<polygon class="st0" points="68.9,203.94 69.99,204.72 72.48,202.68 74.51,200.64 76.23,198.45 77.47,196.41 78.25,194.37
				78.72,192.33 79.03,190.45 78.57,188.57 78.1,186.84 77.32,184.96 76.38,183.39 74.98,181.66 73.58,180.09 72.02,178.68
				70.46,177.27 68.43,175.86 67.81,177.11 69.52,178.21 71.08,179.62 72.64,181.04 74.04,182.6 75.14,184.02 76.07,185.59
				76.85,187.15 77.32,188.88 77.47,190.45 77.47,192.33 77.01,194.06 76.23,195.78 74.98,197.82 73.58,199.7 71.55,201.74
				69.05,203.78 70.15,204.57 69.05,203.78 68.9,204.25 69.05,204.72 69.52,204.88 69.99,204.72 			"/>
			<polygon class="st0" points="68.9,191.39 68.9,191.39 70.15,193.12 71.08,194.68 71.24,196.41 71.24,197.98 70.93,199.55
				70.3,200.96 69.52,202.53 68.9,203.94 70.15,204.57 70.77,203.15 71.55,201.59 72.17,199.86 72.49,197.98 72.8,196.41
				72.33,194.37 71.39,192.49 69.83,190.45 69.83,190.45 			"/>
			<polygon class="st0" points="55.33,169.59 55.33,169.59 55.96,173.19 57.05,176.33 58.61,179.47 60.48,182.29 62.66,184.96
				64.84,187.31 67.03,189.35 68.9,191.39 69.83,190.45 67.96,188.41 65.78,186.37 63.6,184.02 61.73,181.66 59.85,178.84
				58.3,176.02 57.2,172.88 56.58,169.59 56.58,169.59 			"/>
			<polygon class="st0" points="67.96,145.27 67.96,144.01 64.38,146.84 61.57,149.66 59.08,152.64 57.51,155.78 56.27,159.08
				55.64,162.52 55.33,165.98 55.33,169.59 56.58,169.59 56.58,165.98 56.89,162.52 57.51,159.39 58.76,156.41 60.32,153.27
				62.5,150.61 65.31,147.78 68.59,145.27 68.59,144.01 68.59,145.27 68.9,144.96 68.9,144.33 68.43,144.01 67.96,144.01 			"/>
			<polygon class="st0" points="55.33,119.54 55.33,119.54 55.18,121.43 55.18,123.15 55.33,124.88 55.64,126.6 55.8,128.33
				56.27,130.05 56.74,131.62 57.51,133.35 58.3,134.92 59.07,136.49 60.32,138.06 61.57,139.62 62.82,141.04 64.38,142.45
				65.94,143.7 67.96,145.27 68.59,144.01 66.87,142.76 65.31,141.5 63.75,140.09 62.51,138.68 61.26,137.11 60.32,135.86
				59.54,134.29 58.76,132.72 57.98,131.31 57.51,129.74 57.05,128.33 56.89,126.6 56.58,124.88 56.73,123.15 56.74,121.43
				56.58,119.55 56.58,119.55 			"/>
			<polygon class="st0" points="68.9,97.74 68.9,97.74 67.03,99.78 64.84,101.82 62.66,104.17 60.48,106.84 58.61,109.66
				57.05,112.8 55.96,115.94 55.33,119.54 56.58,119.55 57.21,116.25 58.3,113.11 59.85,110.29 61.72,107.46 63.6,105.11
				65.78,102.76 67.96,100.72 69.83,98.68 69.83,98.68 			"/>
			<polygon class="st0" points="69.99,84.56 68.9,85.35 69.52,86.76 70.3,88.33 70.93,89.74 71.24,91.15 71.24,92.88 71.08,94.45
				70.15,96.02 68.9,97.74 69.83,98.68 71.39,96.64 72.33,94.76 72.8,92.88 72.48,91.15 72.17,89.42 71.55,87.7 70.77,86.13
				70.15,84.72 69.05,85.5 70.15,84.72 69.83,84.41 69.21,84.41 68.9,84.88 68.9,85.35 			"/>
			<polygon class="st0" points="67.81,112.17 68.43,113.27 70.46,111.86 72.02,110.44 73.58,109.03 74.98,107.46 76.38,105.74
				77.32,104.17 78.1,102.29 78.57,100.57 79.03,98.68 78.72,96.96 78.25,94.92 77.47,92.72 76.23,90.84 74.51,88.64 72.48,86.6
				69.99,84.56 69.05,85.5 71.55,87.54 73.58,89.58 74.98,91.46 76.23,93.35 77.01,95.23 77.47,96.96 77.47,98.68 77.32,100.25
				76.85,101.98 76.07,103.54 75.14,105.11 74.04,106.53 72.64,108.09 71.08,109.5 69.52,110.92 67.81,112.02 68.43,113.11
				67.81,112.02 67.5,112.33 67.5,112.8 67.96,113.27 68.43,113.27 			"/>
			<polygon class="st0" points="80.59,119.23 80.59,119.23 80.59,116.72 79.81,114.37 78.41,112.49 76.54,111.23 74.36,110.6
				72.17,110.44 69.99,110.92 67.81,112.17 68.43,113.11 70.3,112.17 72.17,111.7 74.36,111.86 75.91,112.49 77.47,113.43
				78.57,115 79.35,116.72 79.35,119.23 79.35,119.23 			"/>
			<polygon class="st0" points="69.68,125.51 69.68,126.45 71.24,127.23 72.8,127.7 74.51,127.23 76.07,126.76 77.79,125.51
				79.19,123.93 80.12,121.74 80.59,119.23 79.35,119.23 78.88,121.43 77.94,123.31 76.85,124.56 75.45,125.51 74.2,125.98
				72.8,126.13 71.55,125.98 70.61,125.51 70.61,126.45 70.61,125.51 70.15,125.35 69.68,125.51 69.52,125.98 69.68,126.45 			"/>
			<polygon class="st0" points="65,125.5 65,125.5 65.93,123.15 67.18,121.74 68.12,121.27 69.52,121.58 70.3,122.21 70.77,123
				70.61,124.25 69.68,125.51 70.61,126.45 71.86,124.56 72.02,123 71.24,121.27 69.83,120.33 68.12,120.01 66.25,120.8
				64.69,122.52 63.75,125.5 63.75,125.5 			"/>
			<polygon class="st0" points="88.86,144.17 85.27,143.54 81.06,142.13 76.85,140.25 72.8,137.58 69.37,134.92 66.87,131.78
				65.15,128.64 65,125.5 63.75,125.5 63.91,128.96 65.62,132.41 68.43,135.86 72.17,138.84 76.23,141.5 80.75,143.39 84.96,144.8
				88.86,145.43 			"/>
			<polygon class="st0" points="88.86,145.43 89.33,145.27 89.48,144.8 89.33,144.33 88.86,144.17 			"/>
			<polygon class="st0" points="33.97,147 33.81,146.84 32.25,145.74 30.69,144.96 28.98,144.33 26.95,143.86 26.95,145.43
				28.67,145.58 30.07,146.21 31.63,147 33.19,148.09 33.03,147.94 			"/>
			<polygon class="st0" points="45.98,151.39 45.35,150.45 41.61,150.29 38.49,149.35 35.84,148.09 33.97,147 33.03,147.94
				35.22,149.35 38.18,150.6 41.61,151.55 45.35,151.7 44.73,150.76 45.35,151.7 45.82,151.55 45.98,151.08 45.82,150.6
				45.35,150.45 			"/>
			<polygon class="st0" points="50.03,167.55 50.81,166.76 49.56,165.98 48.16,165.04 46.75,163.62 45.66,161.9 44.88,159.7
				44.57,157.35 44.88,154.53 45.98,151.39 44.73,150.76 43.64,154.21 43.01,157.35 43.64,160.02 44.42,162.52 45.82,164.56
				47.22,165.98 48.94,167.23 50.5,168.02 51.28,167.23 50.5,168.02 50.97,167.86 51.28,167.55 51.12,167.08 50.81,166.76 			"/>
			<polygon class="st0" points="51.74,152.33 51.74,152.33 50.81,153.9 50.18,155.78 49.56,157.51 49.25,159.55 48.94,161.43
				49.09,163.31 49.41,165.51 50.03,167.55 51.28,167.23 50.65,165.19 50.34,163.31 50.5,161.43 50.5,159.55 50.81,157.82
				51.43,156.09 52.06,154.53 52.99,152.96 52.99,152.96 52.99,152.96 52.99,152.49 52.52,152.02 52.06,152.02 51.74,152.33 			"/>
			<polygon class="st0" points="54.55,148.56 54.55,148.56 53.93,149.35 53.15,150.45 52.37,151.39 51.74,152.33 52.99,152.96
				53.62,152.02 54.08,151.08 54.86,150.29 55.49,149.51 55.49,149.51 55.49,149.51 55.64,149.03 55.49,148.56 55.02,148.41
				54.55,148.56 			"/>
			<polygon class="st0" points="61.26,145.27 61.26,144.01 59.7,144.64 58.14,145.43 56.27,147 54.55,148.56 55.49,149.51
				57.2,147.94 58.76,146.68 60.32,145.9 61.57,145.27 61.57,144.01 61.57,145.27 61.88,144.96 62.04,144.49 61.73,144.17
				61.26,144.01 			"/>
			<polygon class="st0" points="54.08,140.09 54.08,140.09 55.02,141.04 55.96,141.98 56.74,142.76 57.83,143.54 58.76,144.17
				59.54,144.64 60.48,144.96 61.26,145.27 61.57,144.01 60.79,143.7 60.17,143.39 59.39,142.92 58.45,142.29 57.67,141.82
				56.89,141.04 55.96,140.09 55.02,139.15 55.02,139.15 55.02,139.15 54.55,139 54.08,139.15 53.93,139.62 54.08,140.09 			"/>
			<polygon class="st0" points="51.9,136.96 51.9,136.96 52.37,137.74 52.84,138.52 53.46,139.31 54.08,140.09 55.02,139.15
				54.4,138.37 54.08,137.9 53.62,137.11 53.15,136.33 53.15,136.33 53.15,136.33 52.84,136.02 52.21,136.02 51.9,136.49
				51.9,136.96 			"/>
			<polygon class="st0" points="50.81,122.37 50.03,121.58 49.41,123.62 49.09,125.82 48.94,127.86 49.25,129.74 49.56,131.78
				50.18,133.51 50.97,135.39 51.9,136.96 53.15,136.33 52.21,134.76 51.43,133.19 50.81,131.46 50.5,129.74 50.5,127.86
				50.34,125.82 50.65,123.94 51.28,121.9 50.5,121.11 51.28,121.9 51.12,121.43 50.81,121.11 50.34,121.11 50.03,121.58 			"/>
			<polygon class="st0" points="45.35,138.68 45.98,137.74 44.88,134.6 44.57,131.78 44.88,129.43 45.66,127.23 46.75,125.5
				48.16,124.1 49.56,123.15 50.81,122.37 50.5,121.11 48.94,121.9 47.22,123.15 45.82,124.56 44.42,126.6 43.64,129.12
				43.01,131.78 43.64,134.92 44.73,138.37 45.35,137.43 44.73,138.37 45.04,138.68 45.51,138.68 45.98,138.21 45.98,137.74 			"/>
			<polygon class="st0" points="33.81,142.29 33.81,142.29 35.84,141.04 38.49,139.78 41.61,138.84 45.35,138.68 45.35,137.43
				41.61,137.58 38.18,138.52 35.22,139.78 33.19,141.04 33.19,141.04 			"/>
			<polygon class="st0" points="26.95,143.86 26.95,145.43 28.98,144.96 30.69,144.33 32.25,143.39 33.81,142.29 33.19,141.04
				31.63,142.13 30.07,143.08 28.67,143.7 26.95,143.86 26.95,145.43 26.95,143.86 26.48,144.17 26.17,144.64 26.48,145.11
				26.95,145.43 			"/>
			<polygon class="st0" points="54.24,148.41 54.24,148.41 53.62,149.19 52.84,150.13 52.21,151.23 51.43,152.17 53.31,153.11
				53.77,152.17 54.4,151.39 55.18,150.45 55.8,149.66 55.8,149.66 			"/>
			<polygon class="st0" points="61.1,145.58 61.26,143.7 59.7,144.33 57.98,145.27 56.11,146.68 54.24,148.41 55.8,149.66
				57.36,148.25 58.92,146.84 60.32,146.21 61.57,145.58 61.72,143.7 61.57,145.58 65.15,144.64 61.72,143.7 			"/>
			<polygon class="st0" points="53.77,140.25 53.77,140.25 54.86,141.19 55.8,142.13 56.58,143.08 57.67,143.7 58.61,144.33
				59.39,144.96 60.32,145.27 61.1,145.58 61.72,143.7 60.95,143.39 60.32,143.08 59.54,142.76 58.61,142.13 57.83,141.5
				57.05,140.88 56.11,139.94 55.33,139 55.33,139 			"/>
			<polygon class="st0" points="52.84,137.58 51.59,137.11 52.21,137.9 52.68,138.68 53.15,139.47 53.77,140.25 55.33,139
				54.71,138.21 54.24,137.74 53.77,136.96 53.46,136.17 52.21,135.7 53.46,136.17 52.84,135.39 52.21,135.7 			"/>
			<polygon class="st0" points="51.43,152.17 52.84,151.7 50.34,150.13 48.78,148.41 48,146.52 47.85,144.33 48.16,142.29
				49.09,140.56 50.65,138.84 52.84,137.58 52.21,135.7 49.41,137.27 47.53,139.31 46.29,141.66 45.66,144.33 46.13,146.84
				47.22,149.35 49.09,151.7 51.9,153.58 53.31,153.11 51.9,153.58 52.68,154.05 53.31,153.11 			"/>
			<polygon class="st0" points="61.26,145.27 61.26,144.01 59.7,144.64 58.14,145.43 56.27,147 54.55,148.56 55.49,149.51
				57.2,147.94 58.76,146.68 60.32,145.9 61.57,145.27 61.57,144.01 61.57,145.27 61.88,144.96 62.04,144.49 61.73,144.17
				61.26,144.01 			"/>
			<polygon class="st0" points="54.86,140.25 54.08,140.09 55.02,141.04 55.96,141.98 56.74,142.76 57.83,143.54 58.76,144.17
				59.54,144.64 60.48,144.96 61.26,145.27 61.57,144.01 60.79,143.7 60.17,143.39 59.39,142.92 58.45,142.29 57.67,141.82
				56.89,141.04 55.96,140.09 55.02,139.15 54.24,139 55.02,139.15 54.55,139 54.08,139.15 53.93,139.62 54.08,140.09 			"/>
			<polygon class="st0" points="54.55,148.56 55.33,148.41 54.08,147.78 53.3,146.68 52.84,145.58 52.68,144.33 52.84,143.23
				53.3,141.98 53.93,141.04 54.86,140.25 54.24,139 52.99,140.09 52.06,141.35 51.59,142.92 51.12,144.33 51.59,145.9
				52.06,147.31 53.15,148.72 54.71,149.66 55.49,149.51 54.71,149.66 55.18,149.66 55.64,149.19 55.64,148.72 55.33,148.41 			"/>
		</g>
	</g>
	<g>
		<g>
			<polygon class="st0" points="136.7,193.27 136.85,192.8 137.32,192.64 137.79,192.8 137.95,193.27 			"/>
			<polygon class="st0" points="118.5,217.12 118.5,217.12 121.64,216.97 124.77,215.25 127.75,212.76 130.42,209.33 132.77,205.27
				134.81,201.06 136.07,196.85 136.7,193.27 137.95,193.27 137.32,197.16 136.07,201.37 134.03,205.9 131.68,209.95 128.7,213.69
				125.4,216.5 121.95,218.22 118.5,218.37 118.5,218.37 			"/>
			<polygon class="st0" points="119.28,212.45 118.34,212.45 117.09,211.51 115.83,211.35 115.05,211.82 114.42,212.6 114.26,214
				114.74,214.94 116.15,216.19 118.5,217.12 118.5,218.37 115.52,217.44 113.79,215.88 113.01,214 113.17,212.29 114.11,210.89
				115.83,210.11 117.4,210.26 119.28,211.51 118.34,211.51 119.28,211.51 119.44,211.98 119.28,212.45 118.81,212.6 118.34,212.45
							"/>
			<polygon class="st0" points="112.23,201.53 112.23,201.53 114.74,202 116.93,202.93 118.5,204.34 119.75,206.05 120.23,207.61
				120.54,209.33 120.07,210.89 119.28,212.45 118.34,211.51 118.81,210.57 118.97,209.33 118.97,207.92 118.5,206.67
				117.56,205.27 116.3,204.18 114.42,203.25 112.23,202.78 112.23,202.78 			"/>
			<polygon class="st0" points="106.26,213.69 105.17,214.32 103.91,212.13 103.44,209.95 103.6,207.77 104.23,205.58
				105.48,203.71 107.36,202.31 109.72,201.53 112.23,201.53 112.23,202.78 109.72,202.78 107.99,203.56 106.42,204.65
				105.48,206.21 104.85,207.77 104.7,209.95 105.17,211.82 106.11,213.69 105.01,214.32 106.11,213.69 106.11,214.16
				105.95,214.47 105.48,214.63 105.17,214.32 			"/>
			<polygon class="st0" points="78.19,213.22 77.4,212.13 79.44,209.64 81.48,207.61 83.68,205.9 85.72,204.65 87.75,203.87
				89.79,203.4 91.68,203.09 93.56,203.56 95.28,204.03 97.17,204.8 98.74,205.74 100.46,207.14 102.03,208.55 103.44,210.11
				104.85,211.67 106.26,213.69 105.01,214.32 103.91,212.6 102.5,211.04 101.09,209.48 99.52,208.08 98.11,206.99 96.54,206.05
				94.97,205.27 93.25,204.8 91.68,204.65 89.79,204.65 88.07,205.12 86.34,205.9 84.3,207.14 82.42,208.55 80.38,210.57
				78.34,213.07 77.56,211.98 78.34,213.07 77.87,213.23 77.4,213.07 77.24,212.6 77.4,212.13 			"/>
			<polygon class="st0" points="90.74,213.22 90.74,213.22 89.01,211.98 87.44,211.04 85.72,210.89 84.15,210.89 82.58,211.2
				81.17,211.82 79.6,212.6 78.19,213.22 77.56,211.98 78.97,211.35 80.54,210.57 82.26,209.95 84.15,209.64 85.72,209.33
				87.75,209.8 89.64,210.73 91.68,212.29 91.68,212.29 			"/>
			<polygon class="st0" points="112.54,226.79 112.54,226.79 108.93,226.17 105.79,225.08 102.66,223.52 99.83,221.65 97.17,219.46
				94.81,217.28 92.77,215.1 90.74,213.22 91.68,212.29 93.72,214.16 95.76,216.34 98.11,218.53 100.46,220.4 103.28,222.27
				106.11,223.83 109.24,224.92 112.54,225.55 112.54,225.55 			"/>
			<polygon class="st0" points="136.85,214.16 138.11,214.16 135.28,217.75 132.46,220.55 129.48,223.05 126.34,224.61
				123.05,225.86 119.6,226.48 116.15,226.79 112.54,226.79 112.54,225.55 116.15,225.55 119.6,225.23 122.74,224.61 125.72,223.36
				128.85,221.8 131.52,219.62 134.34,216.81 136.85,213.54 138.11,213.54 136.85,213.54 137.17,213.22 137.79,213.22
				138.11,213.69 138.11,214.16 			"/>
			<polygon class="st0" points="162.58,226.79 162.58,226.79 160.7,226.95 158.97,226.95 157.25,226.79 155.52,226.48 153.8,226.32
				152.07,225.86 150.5,225.39 148.78,224.61 147.21,223.83 145.64,223.05 144.07,221.8 142.5,220.55 141.09,219.31 139.68,217.75
				138.42,216.19 136.85,214.16 138.11,213.54 139.36,215.25 140.62,216.81 142.03,218.37 143.44,219.62 145.01,220.87
				146.27,221.8 147.83,222.58 149.4,223.36 150.81,224.14 152.38,224.61 153.8,225.08 155.52,225.23 157.25,225.55 158.97,225.39
				160.7,225.39 162.58,225.55 162.58,225.55 			"/>
			<polygon class="st0" points="184.38,213.22 184.38,213.22 182.34,215.1 180.3,217.28 177.95,219.46 175.29,221.65 172.46,223.52
				169.33,225.08 166.19,226.17 162.58,226.79 162.58,225.55 165.88,224.92 169.01,223.83 171.84,222.27 174.66,220.4
				177.01,218.53 179.36,216.34 181.4,214.16 183.44,212.29 183.44,212.29 			"/>
			<polygon class="st0" points="197.56,212.13 196.78,213.22 195.36,212.6 193.8,211.82 192.38,211.2 190.97,210.89 189.25,210.89
				187.68,211.04 186.11,211.98 184.38,213.22 183.44,212.29 185.48,210.73 187.36,209.79 189.25,209.33 190.97,209.64
				192.7,209.95 194.42,210.57 195.99,211.35 197.4,211.98 196.62,213.07 197.4,211.98 197.72,212.29 197.72,212.91 197.25,213.22
				196.78,213.22 			"/>
			<polygon class="st0" points="169.95,214.32 168.86,213.69 170.27,211.67 171.68,210.11 173.09,208.55 174.66,207.14
				176.38,205.74 177.95,204.8 179.84,204.03 181.56,203.56 183.44,203.09 185.17,203.4 187.21,203.87 189.4,204.65 191.29,205.9
				193.48,207.61 195.52,209.64 197.56,212.13 196.62,213.07 194.58,210.57 192.54,208.55 190.66,207.14 188.78,205.9
				186.89,205.12 185.17,204.65 183.44,204.65 181.88,204.8 180.15,205.27 178.58,206.05 177.01,206.99 175.6,208.08 174.03,209.48
				172.62,211.04 171.21,212.6 170.11,214.32 169.01,213.69 170.11,214.32 169.8,214.63 169.33,214.63 168.86,214.16 168.86,213.69
							"/>
			<polygon class="st0" points="162.89,201.53 162.89,201.53 165.4,201.53 167.76,202.31 169.64,203.71 170.89,205.58
				171.52,207.77 171.68,209.95 171.21,212.13 169.95,214.32 169.01,213.69 169.95,211.82 170.42,209.95 170.27,207.77
				169.64,206.21 168.7,204.65 167.13,203.56 165.4,202.78 162.89,202.78 162.89,202.78 			"/>
			<polygon class="st0" points="156.62,212.45 155.68,212.45 154.89,210.89 154.42,209.33 154.89,207.61 155.36,206.05
				156.62,204.34 158.19,202.93 160.38,202 162.89,201.53 162.89,202.78 160.7,203.25 158.81,204.18 157.56,205.27 156.62,206.68
				156.15,207.92 155.99,209.33 156.15,210.57 156.62,211.51 155.68,211.51 156.62,211.51 156.78,211.98 156.62,212.45
				156.15,212.6 155.68,212.45 			"/>
			<polygon class="st0" points="156.62,217.12 156.62,217.12 158.97,216.19 160.38,214.94 160.85,214.01 160.54,212.6
				159.91,211.82 159.13,211.35 157.88,211.51 156.62,212.45 155.68,211.51 157.56,210.26 159.13,210.11 160.85,210.89
				161.8,212.29 162.11,214.01 161.32,215.88 159.6,217.44 156.62,218.37 156.62,218.37 			"/>
			<polygon class="st0" points="137.95,193.27 138.58,196.85 139.99,201.06 141.87,205.27 144.54,209.33 147.21,212.76
				150.34,215.25 153.48,216.97 156.62,217.12 156.62,218.37 153.17,218.21 149.72,216.5 146.27,213.69 143.28,209.95 140.62,205.9
				138.73,201.37 137.32,197.16 136.7,193.27 			"/>
			<polygon class="st0" points="136.7,193.27 136.85,192.8 137.32,192.64 137.79,192.8 137.95,193.27 			"/>
			<polygon class="st0" points="135.13,248.16 135.28,248.31 136.38,249.87 137.17,251.43 137.79,253.14 138.26,255.17
				136.7,255.17 136.54,253.46 135.91,252.05 135.13,250.49 134.03,248.94 134.19,249.09 			"/>
			<polygon class="st0" points="130.73,236.15 131.68,236.77 131.83,240.52 132.77,243.63 134.03,246.28 135.13,248.16
				134.19,249.09 132.77,246.91 131.52,243.94 130.58,240.52 130.42,236.77 131.36,237.4 130.42,236.77 130.58,236.31
				131.05,236.15 131.52,236.31 131.68,236.77 			"/>
			<polygon class="st0" points="114.58,232.09 115.36,231.31 116.15,232.56 117.09,233.96 118.5,235.37 120.23,236.46
				122.42,237.24 124.77,237.55 127.6,237.24 130.73,236.15 131.36,237.4 127.91,238.49 124.77,239.11 122.11,238.49 119.6,237.71
				117.56,236.31 116.15,234.9 114.89,233.19 114.11,231.63 114.89,230.85 114.11,231.63 114.26,231.16 114.58,230.85 115.05,231
				115.36,231.31 			"/>
			<polygon class="st0" points="129.79,230.38 129.79,230.38 128.23,231.31 126.34,231.94 124.62,232.56 122.58,232.87
				120.7,233.19 118.81,233.03 116.62,232.72 114.58,232.09 114.89,230.85 116.93,231.47 118.81,231.78 120.7,231.63 122.58,231.63
				124.3,231.31 126.03,230.69 127.6,230.07 129.17,229.13 129.17,229.13 129.17,229.13 129.64,229.13 130.11,229.6 130.11,230.07
				129.79,230.38 			"/>
			<polygon class="st0" points="133.56,227.57 133.56,227.57 132.77,228.19 131.68,228.97 130.73,229.76 129.79,230.38
				129.17,229.13 130.11,228.51 131.05,228.04 131.83,227.26 132.62,226.64 132.62,226.64 132.62,226.64 133.09,226.48
				133.56,226.64 133.72,227.1 133.56,227.57 			"/>
			<polygon class="st0" points="136.85,220.87 138.11,220.87 137.48,222.43 136.7,223.99 135.13,225.86 133.56,227.57
				132.62,226.64 134.19,224.92 135.44,223.36 136.23,221.8 136.85,220.55 138.11,220.55 136.85,220.55 137.17,220.24
				137.64,220.09 137.95,220.4 138.11,220.87 			"/>
			<polygon class="st0" points="142.03,228.04 142.03,228.04 141.09,227.1 140.15,226.17 139.36,225.39 138.58,224.3 137.95,223.36
				137.48,222.58 137.17,221.65 136.85,220.87 138.11,220.55 138.42,221.33 138.73,221.96 139.21,222.74 139.84,223.67
				140.31,224.45 141.09,225.23 142.03,226.17 142.97,227.1 142.97,227.1 142.97,227.1 143.13,227.57 142.97,228.04 142.5,228.19
				142.03,228.04 			"/>
			<polygon class="st0" points="145.17,230.22 145.17,230.22 144.38,229.76 143.6,229.29 142.82,228.66 142.03,228.04 142.97,227.1
				143.76,227.73 144.23,228.04 145.01,228.51 145.8,228.97 145.8,228.97 145.8,228.97 146.11,229.29 146.11,229.91 145.64,230.22
				145.17,230.22 			"/>
			<polygon class="st0" points="159.76,231.31 160.54,232.09 158.5,232.72 156.31,233.03 154.27,233.19 152.38,232.88
				150.34,232.56 148.62,231.94 146.74,231.16 145.17,230.22 145.8,228.97 147.36,229.91 148.93,230.69 150.66,231.31
				152.38,231.63 154.27,231.63 156.31,231.78 158.19,231.47 160.23,230.85 161.01,231.63 160.23,230.85 160.7,231 161.01,231.31
				161.01,231.78 160.54,232.09 			"/>
			<polygon class="st0" points="143.44,236.77 144.38,236.15 147.52,237.24 150.34,237.55 152.7,237.24 154.89,236.46
				156.62,235.37 158.03,233.96 158.97,232.56 159.76,231.31 161.01,231.63 160.23,233.19 158.97,234.9 157.56,236.31
				155.52,237.71 153.01,238.49 150.34,239.11 147.21,238.49 143.76,237.4 144.7,236.77 143.76,237.4 143.44,237.08 143.44,236.62
				143.91,236.15 144.38,236.15 			"/>
			<polygon class="st0" points="139.84,248.31 139.84,248.31 141.09,246.28 142.34,243.63 143.28,240.52 143.44,236.77
				144.7,236.77 144.54,240.52 143.6,243.94 142.34,246.91 141.09,248.93 141.09,248.93 			"/>
			<polygon class="st0" points="138.26,255.17 136.7,255.17 137.17,253.14 137.79,251.43 138.73,249.87 139.84,248.31
				141.09,248.93 139.99,250.49 139.05,252.05 138.42,253.46 138.26,255.17 136.7,255.17 138.26,255.17 137.95,255.64
				137.48,255.95 137.01,255.64 136.7,255.17 			"/>
			<polygon class="st0" points="133.72,227.88 133.72,227.88 132.93,228.51 131.99,229.29 130.89,229.91 129.95,230.69
				129.01,228.82 129.95,228.35 130.73,227.73 131.68,226.95 132.46,226.32 132.46,226.32 			"/>
			<polygon class="st0" points="136.54,221.02 138.42,220.87 137.79,222.43 136.85,224.14 135.44,226.01 133.72,227.88
				132.46,226.32 133.87,224.77 135.29,223.21 135.91,221.8 136.54,220.55 138.42,220.4 136.54,220.55 137.48,216.97 138.42,220.4
							"/>
			<polygon class="st0" points="141.87,228.35 141.87,228.35 140.93,227.26 139.99,226.32 139.05,225.55 138.42,224.45
				137.79,223.52 137.17,222.74 136.85,221.8 136.54,221.02 138.42,220.4 138.73,221.18 139.05,221.8 139.36,222.58 139.99,223.52
				140.62,224.3 141.25,225.08 142.19,226.01 143.13,226.79 143.13,226.79 			"/>
			<polygon class="st0" points="144.54,229.29 145.01,230.53 144.23,229.91 143.44,229.44 142.66,228.97 141.87,228.35
				143.13,226.79 143.91,227.42 144.38,227.88 145.17,228.35 145.95,228.66 146.42,229.91 145.95,228.66 146.74,229.29
				146.42,229.91 			"/>
			<polygon class="st0" points="129.95,230.69 130.42,229.29 131.99,231.78 133.72,233.34 135.6,234.12 137.79,234.28
				139.84,233.96 141.56,233.03 143.28,231.47 144.54,229.29 146.42,229.91 144.85,232.72 142.82,234.59 140.46,235.84
				137.79,236.46 135.28,235.99 132.77,234.9 130.42,233.03 128.54,230.22 129.01,228.82 128.54,230.22 128.07,229.44
				129.01,228.82 			"/>
			<polygon class="st0" points="136.85,220.87 138.11,220.87 137.48,222.43 136.7,223.99 135.13,225.86 133.56,227.57
				132.62,226.64 134.19,224.92 135.44,223.36 136.23,221.8 136.85,220.55 138.11,220.55 136.85,220.55 137.17,220.24
				137.64,220.09 137.95,220.4 138.11,220.87 			"/>
			<polygon class="st0" points="141.87,227.26 142.03,228.04 141.09,227.1 140.15,226.17 139.36,225.39 138.58,224.3 137.95,223.36
				137.48,222.58 137.17,221.65 136.85,220.87 138.11,220.55 138.42,221.33 138.73,221.96 139.21,222.74 139.84,223.67
				140.31,224.45 141.09,225.23 142.03,226.17 142.97,227.1 143.13,227.88 142.97,227.1 143.13,227.57 142.97,228.04 142.5,228.19
				142.03,228.04 			"/>
			<polygon class="st0" points="133.56,227.57 133.72,226.79 134.34,228.04 135.44,228.82 136.54,229.29 137.79,229.44
				138.89,229.29 140.15,228.82 141.09,228.19 141.87,227.26 143.13,227.88 142.03,229.13 140.78,230.07 139.21,230.53 137.79,231
				136.23,230.53 134.81,230.07 133.4,228.97 132.46,227.42 132.62,226.64 132.46,227.42 132.46,226.95 132.93,226.48 133.4,226.48
				133.72,226.79 			"/>
		</g>
	</g>
	<g>
		<g>
			<polygon class="st0" points="141.17,93.12 141.01,93.58 140.54,93.74 140.07,93.58 139.91,93.12 			"/>
			<polygon class="st0" points="159.37,69.26 159.37,69.26 156.23,69.41 153.09,71.13 150.11,73.62 147.44,77.06 145.09,81.11
				143.05,85.32 141.8,89.53 141.17,93.12 139.91,93.12 140.54,89.22 141.8,85.01 143.84,80.49 146.19,76.43 149.17,72.69
				152.46,69.88 155.91,68.17 159.37,68.01 159.37,68.01 			"/>
			<polygon class="st0" points="158.58,73.94 159.52,73.94 160.78,74.87 162.03,75.03 162.82,74.56 163.45,73.78 163.6,72.38
				163.13,71.44 161.72,70.19 159.37,69.26 159.37,68.01 162.35,68.95 164.07,70.5 164.86,72.38 164.7,74.09 163.76,75.5
				162.03,76.28 160.47,76.12 158.58,74.87 159.52,74.87 158.58,74.87 158.43,74.4 158.58,73.94 159.05,73.78 159.52,73.94 			"/>
			<polygon class="st0" points="165.64,84.85 165.64,84.85 163.13,84.38 160.93,83.45 159.37,82.04 158.11,80.33 157.64,78.77
				157.33,77.06 157.8,75.5 158.58,73.94 159.52,74.87 159.05,75.81 158.89,77.06 158.9,78.46 159.37,79.71 160.31,81.11
				161.56,82.2 163.45,83.14 165.64,83.61 165.64,83.61 			"/>
			<polygon class="st0" points="171.6,72.69 172.7,72.06 173.95,74.25 174.43,76.43 174.27,78.62 173.64,80.8 172.39,82.67
				170.5,84.07 168.15,84.85 165.64,84.85 165.64,83.61 168.15,83.61 169.88,82.83 171.45,81.73 172.39,80.17 173.01,78.61
				173.17,76.43 172.7,74.56 171.76,72.69 172.86,72.06 171.76,72.69 171.76,72.22 171.92,71.91 172.39,71.75 172.7,72.06 			"/>
			<polygon class="st0" points="199.68,73.16 200.47,74.25 198.43,76.74 196.39,78.77 194.19,80.49 192.15,81.73 190.11,82.51
				188.07,82.98 186.19,83.29 184.31,82.83 182.58,82.36 180.7,81.58 179.13,80.64 177.41,79.24 175.84,77.84 174.43,76.28
				173.01,74.72 171.6,72.69 172.86,72.06 173.95,73.78 175.37,75.34 176.78,76.9 178.35,78.3 179.76,79.39 181.33,80.33
				182.9,81.11 184.62,81.58 186.19,81.73 188.07,81.73 189.8,81.27 191.52,80.49 193.56,79.24 195.45,77.83 197.48,75.81
				199.52,73.31 200.31,74.4 199.52,73.31 200,73.16 200.47,73.31 200.62,73.78 200.47,74.25 			"/>
			<polygon class="st0" points="187.13,73.16 187.13,73.16 188.86,74.4 190.43,75.34 192.15,75.5 193.72,75.5 195.29,75.18
				196.7,74.56 198.27,73.78 199.68,73.16 200.31,74.4 198.9,75.03 197.33,75.81 195.6,76.43 193.72,76.74 192.15,77.06
				190.11,76.59 188.23,75.65 186.19,74.09 186.19,74.09 			"/>
			<polygon class="st0" points="165.33,59.59 165.33,59.59 168.93,60.21 172.07,61.3 175.21,62.86 178.03,64.74 180.7,66.92
				183.05,69.1 185.09,71.29 187.13,73.16 186.19,74.09 184.15,72.22 182.11,70.04 179.76,67.86 177.41,65.98 174.58,64.11
				171.76,62.55 168.62,61.46 165.33,60.84 165.33,60.84 			"/>
			<polygon class="st0" points="141.01,72.22 139.76,72.22 142.58,68.63 145.4,65.83 148.39,63.33 151.52,61.77 154.82,60.53
				158.27,59.9 161.72,59.59 165.33,59.59 165.33,60.84 161.72,60.84 158.27,61.15 155.13,61.77 152.15,63.02 149.01,64.58
				146.35,66.76 143.52,69.57 141.01,72.84 139.76,72.84 141.01,72.84 140.7,73.16 140.07,73.16 139.76,72.69 139.76,72.22 			"/>
			<polygon class="st0" points="115.29,59.59 115.29,59.59 117.17,59.43 118.89,59.43 120.62,59.59 122.35,59.9 124.07,60.06
				125.8,60.53 127.37,60.99 129.09,61.77 130.66,62.55 132.23,63.33 133.8,64.58 135.37,65.83 136.78,67.08 138.19,68.63
				139.44,70.19 141.01,72.22 139.76,72.84 138.5,71.13 137.25,69.57 135.84,68.01 134.42,66.76 132.86,65.52 131.6,64.58
				130.03,63.8 128.46,63.02 127.05,62.24 125.48,61.77 124.07,61.3 122.35,61.15 120.62,60.84 118.89,60.99 117.17,60.99
				115.29,60.84 115.29,60.84 			"/>
			<polygon class="st0" points="93.48,73.16 93.48,73.16 95.52,71.29 97.56,69.1 99.91,66.92 102.58,64.73 105.4,62.87 108.54,61.3
				111.68,60.21 115.29,59.59 115.29,60.84 111.99,61.46 108.86,62.55 106.03,64.11 103.21,65.98 100.86,67.85 98.5,70.04
				96.46,72.22 94.42,74.09 94.42,74.09 			"/>
			<polygon class="st0" points="80.31,74.25 81.09,73.16 82.5,73.78 84.07,74.56 85.48,75.18 86.9,75.5 88.62,75.5 90.19,75.34
				91.76,74.4 93.48,73.16 94.42,74.09 92.38,75.65 90.5,76.59 88.62,77.06 86.9,76.74 85.17,76.43 83.44,75.81 81.87,75.03
				80.46,74.4 81.25,73.31 80.46,74.4 80.15,74.09 80.15,73.47 80.62,73.16 81.09,73.16 			"/>
			<polygon class="st0" points="107.91,72.06 109.01,72.69 107.6,74.72 106.19,76.28 104.78,77.83 103.21,79.24 101.48,80.64
				99.91,81.58 98.03,82.36 96.31,82.83 94.42,83.29 92.7,82.98 90.66,82.51 88.46,81.73 86.58,80.49 84.38,78.77 82.34,76.74
				80.31,74.25 81.25,73.31 83.29,75.81 85.32,77.84 87.21,79.24 89.09,80.49 90.97,81.27 92.7,81.73 94.42,81.73 95.99,81.58
				97.72,81.11 99.29,80.33 100.86,79.39 102.27,78.3 103.83,76.9 105.25,75.34 106.66,73.78 107.76,72.06 108.86,72.69
				107.76,72.06 108.07,71.75 108.54,71.75 109.01,72.22 109.01,72.69 			"/>
			<polygon class="st0" points="114.97,84.85 114.97,84.85 112.46,84.85 110.11,84.07 108.23,82.67 106.97,80.8 106.35,78.61
				106.19,76.43 106.66,74.25 107.91,72.06 108.86,72.69 107.91,74.56 107.44,76.43 107.6,78.61 108.23,80.17 109.17,81.73
				110.74,82.83 112.46,83.61 114.97,83.61 114.97,83.61 			"/>
			<polygon class="st0" points="121.25,73.94 122.19,73.94 122.97,75.5 123.44,77.06 122.97,78.77 122.5,80.33 121.25,82.04
				119.68,83.45 117.48,84.38 114.97,84.85 114.97,83.61 117.17,83.14 119.05,82.2 120.31,81.11 121.25,79.71 121.72,78.46
				121.88,77.06 121.72,75.81 121.25,74.87 122.19,74.87 121.25,74.87 121.09,74.4 121.25,73.94 121.72,73.78 122.19,73.94 			"/>
			<polygon class="st0" points="121.25,69.26 121.25,69.26 118.89,70.19 117.48,71.44 117.01,72.38 117.33,73.78 117.95,74.56
				118.74,75.03 119.99,74.87 121.25,73.94 122.19,74.87 120.31,76.12 118.74,76.28 117.01,75.5 116.07,74.09 115.76,72.38
				116.54,70.5 118.27,68.95 121.25,68.01 121.25,68.01 			"/>
			<polygon class="st0" points="139.91,93.12 139.29,89.53 137.87,85.32 135.99,81.11 133.33,77.05 130.66,73.62 127.52,71.13
				124.38,69.41 121.25,69.26 121.25,68.01 124.7,68.17 128.15,69.88 131.6,72.69 134.58,76.43 137.25,80.49 139.13,85.01
				140.54,89.22 141.17,93.12 			"/>
			<polygon class="st0" points="141.17,93.12 141.01,93.58 140.54,93.74 140.07,93.58 139.91,93.12 			"/>
			<polygon class="st0" points="142.74,38.23 142.58,38.07 141.48,36.51 140.7,34.95 140.07,33.24 139.6,31.21 141.17,31.21
				141.33,32.92 141.95,34.33 142.74,35.89 143.84,37.45 143.68,37.29 			"/>
			<polygon class="st0" points="147.13,50.23 146.19,49.61 146.03,45.87 145.09,42.75 143.84,40.1 142.74,38.23 143.68,37.29
				145.09,39.47 146.35,42.44 147.29,45.87 147.44,49.61 146.5,48.98 147.44,49.61 147.29,50.08 146.82,50.23 146.35,50.08
				146.19,49.61 			"/>
			<polygon class="st0" points="163.29,54.29 162.5,55.07 161.72,53.82 160.78,52.42 159.37,51.01 157.64,49.92 155.44,49.14
				153.09,48.83 150.27,49.14 147.13,50.23 146.5,48.98 149.95,47.89 153.09,47.27 155.76,47.89 158.27,48.67 160.31,50.08
				161.72,51.48 162.97,53.2 163.76,54.76 162.97,55.54 163.76,54.76 163.6,55.22 163.29,55.54 162.82,55.38 162.5,55.07 			"/>
			<polygon class="st0" points="148.07,56 148.07,56 149.64,55.07 151.52,54.44 153.25,53.82 155.29,53.51 157.17,53.2
				159.05,53.35 161.25,53.66 163.29,54.29 162.97,55.54 160.93,54.91 159.05,54.6 157.17,54.76 155.29,54.76 153.56,55.07
				151.84,55.69 150.27,56.31 148.7,57.25 148.7,57.25 148.7,57.25 148.23,57.25 147.76,56.78 147.76,56.31 148.07,56 			"/>
			<polygon class="st0" points="144.31,58.81 144.31,58.81 145.09,58.19 146.19,57.41 147.13,56.63 148.07,56 148.7,57.25
				147.76,57.87 146.82,58.34 146.03,59.12 145.25,59.75 145.25,59.75 145.25,59.75 144.78,59.9 144.31,59.75 144.15,59.28
				144.31,58.81 			"/>
			<polygon class="st0" points="141.01,65.52 139.76,65.52 140.39,63.96 141.17,62.4 142.74,60.53 144.31,58.81 145.25,59.75
				143.68,61.46 142.42,63.02 141.64,64.58 141.01,65.83 139.76,65.83 141.01,65.83 140.7,66.14 140.23,66.3 139.91,65.98
				139.76,65.52 			"/>
			<polygon class="st0" points="135.84,58.34 135.84,58.34 136.78,59.28 137.72,60.21 138.5,60.99 139.29,62.08 139.91,63.02
				140.39,63.8 140.7,64.73 141.01,65.52 139.76,65.83 139.44,65.05 139.13,64.42 138.66,63.64 138.03,62.71 137.56,61.93
				136.78,61.15 135.84,60.21 134.9,59.28 134.9,59.28 134.9,59.28 134.74,58.81 134.9,58.34 135.37,58.19 135.84,58.34 			"/>
			<polygon class="st0" points="132.7,56.16 132.7,56.16 133.48,56.63 134.27,57.09 135.05,57.72 135.84,58.34 134.9,59.28
				134.11,58.65 133.64,58.34 132.86,57.87 132.07,57.41 132.07,57.41 132.07,57.41 131.76,57.09 131.76,56.47 132.23,56.16
				132.7,56.16 			"/>
			<polygon class="st0" points="118.11,55.07 117.33,54.29 119.37,53.66 121.56,53.35 123.6,53.2 125.48,53.51 127.52,53.82
				129.25,54.44 131.13,55.22 132.7,56.16 132.07,57.41 130.5,56.47 128.93,55.69 127.21,55.07 125.48,54.76 123.6,54.76
				121.56,54.6 119.68,54.91 117.64,55.54 116.86,54.76 117.64,55.54 117.17,55.38 116.86,55.07 116.86,54.6 117.33,54.29 			"/>
			<polygon class="st0" points="134.42,49.61 133.48,50.23 130.35,49.14 127.52,48.83 125.17,49.14 122.97,49.92 121.25,51.01
				119.84,52.42 118.89,53.82 118.11,55.07 116.86,54.76 117.64,53.2 118.89,51.48 120.31,50.08 122.35,48.67 124.86,47.89
				127.52,47.27 130.66,47.89 134.11,48.98 133.17,49.61 134.11,48.98 134.42,49.3 134.42,49.76 133.95,50.23 133.48,50.23 			"/>
			<polygon class="st0" points="138.03,38.07 138.03,38.07 136.78,40.1 135.52,42.75 134.58,45.87 134.42,49.61 133.17,49.61
				133.33,45.87 134.27,42.44 135.52,39.47 136.78,37.45 136.78,37.45 			"/>
			<polygon class="st0" points="139.6,31.21 141.17,31.21 140.7,33.24 140.07,34.95 139.13,36.51 138.03,38.07 136.78,37.45
				137.87,35.89 138.82,34.33 139.44,32.92 139.6,31.21 141.17,31.21 139.6,31.21 139.91,30.74 140.39,30.43 140.86,30.74
				141.17,31.21 			"/>
			<polygon class="st0" points="144.15,58.5 144.15,58.5 144.93,57.87 145.88,57.09 146.97,56.47 147.92,55.69 148.86,57.56
				147.92,58.03 147.13,58.65 146.19,59.43 145.4,60.06 145.4,60.06 			"/>
			<polygon class="st0" points="141.33,65.36 139.44,65.52 140.07,63.96 141.01,62.24 142.42,60.37 144.15,58.5 145.4,60.06
				143.99,61.62 142.58,63.18 141.96,64.58 141.33,65.83 139.44,65.98 141.33,65.83 140.39,69.41 139.44,65.98 			"/>
			<polygon class="st0" points="135.99,58.03 135.99,58.03 136.93,59.12 137.87,60.06 138.82,60.84 139.44,61.93 140.07,62.87
				140.7,63.64 141.01,64.58 141.33,65.36 139.44,65.98 139.13,65.2 138.82,64.58 138.5,63.8 137.87,62.87 137.25,62.08
				136.62,61.3 135.68,60.37 134.74,59.59 134.74,59.59 			"/>
			<polygon class="st0" points="133.33,57.09 132.86,55.85 133.64,56.47 134.42,56.94 135.21,57.41 135.99,58.03 134.74,59.59
				133.95,58.97 133.48,58.5 132.7,58.03 131.91,57.72 131.44,56.47 131.91,57.72 131.13,57.09 131.44,56.47 			"/>
			<polygon class="st0" points="147.92,55.69 147.44,57.09 145.88,54.6 144.15,53.04 142.27,52.26 140.07,52.11 138.03,52.42
				136.31,53.35 134.58,54.91 133.33,57.09 131.44,56.47 133.01,53.66 135.05,51.79 137.4,50.55 140.07,49.92 142.58,50.39
				145.09,51.48 147.44,53.35 149.33,56.16 148.86,57.56 149.33,56.16 149.8,56.94 148.86,57.56 			"/>
			<polygon class="st0" points="141.01,65.52 139.76,65.52 140.39,63.96 141.17,62.4 142.74,60.53 144.31,58.81 145.25,59.75
				143.68,61.46 142.42,63.02 141.64,64.58 141.01,65.83 139.76,65.83 141.01,65.83 140.7,66.14 140.23,66.3 139.91,65.98
				139.76,65.52 			"/>
			<polygon class="st0" points="135.99,59.12 135.84,58.34 136.78,59.28 137.72,60.21 138.5,60.99 139.29,62.08 139.91,63.02
				140.39,63.8 140.7,64.73 141.01,65.52 139.76,65.83 139.44,65.05 139.13,64.42 138.66,63.64 138.03,62.71 137.56,61.93
				136.78,61.15 135.84,60.21 134.9,59.28 134.74,58.5 134.9,59.28 134.74,58.81 134.9,58.34 135.37,58.19 135.84,58.34 			"/>
			<polygon class="st0" points="144.31,58.81 144.15,59.59 143.52,58.34 142.42,57.56 141.33,57.09 140.07,56.94 138.97,57.09
				137.72,57.56 136.78,58.19 135.99,59.12 134.74,58.5 135.84,57.25 137.09,56.31 138.66,55.85 140.07,55.38 141.64,55.85
				143.05,56.31 144.46,57.41 145.4,58.97 145.25,59.75 145.4,58.97 145.4,59.43 144.93,59.9 144.46,59.9 144.15,59.59 			"/>
		</g>
	</g>
	<g>
		<g>
			<polygon class="st0" points="189.01,140.95 188.54,141.11 188.38,141.58 188.54,142.05 189.01,142.21 			"/>
			<polygon class="st0" points="212.86,122.76 212.86,122.76 212.71,125.9 211,129.03 208.5,132.01 205.07,134.68 201.02,137.03
				196.81,139.07 192.6,140.33 189.01,140.95 189.01,142.21 192.9,141.58 197.12,140.33 201.64,138.29 205.69,135.93 209.43,132.95
				212.24,129.66 213.96,126.21 214.11,122.76 214.11,122.76 			"/>
			<polygon class="st0" points="208.19,123.54 208.19,122.6 207.25,121.35 207.1,120.09 207.57,119.31 208.34,118.68 209.75,118.52
				210.68,118.99 211.93,120.4 212.86,122.76 214.11,122.76 213.18,119.78 211.62,118.05 209.75,117.27 208.03,117.42
				206.63,118.36 205.85,120.09 206.01,121.66 207.25,123.54 207.25,122.6 207.25,123.54 207.72,123.7 208.19,123.54 208.34,123.07
				208.19,122.6 			"/>
			<polygon class="st0" points="197.27,116.48 197.27,116.48 197.74,118.99 198.68,121.19 200.08,122.76 201.79,124.01
				203.36,124.48 205.07,124.8 206.63,124.33 208.19,123.54 207.25,122.6 206.32,123.07 205.07,123.23 203.67,123.23 202.42,122.76
				201.02,121.82 199.92,120.56 198.99,118.68 198.52,116.48 198.52,116.48 			"/>
			<polygon class="st0" points="209.43,110.52 210.06,109.42 207.88,108.17 205.69,107.7 203.51,107.86 201.33,108.48
				199.45,109.74 198.05,111.62 197.27,113.97 197.27,116.48 198.52,116.48 198.52,113.97 199.3,112.25 200.39,110.68
				201.95,109.74 203.51,109.11 205.69,108.95 207.57,109.42 209.43,110.37 210.06,109.27 209.43,110.37 209.9,110.37
				210.21,110.21 210.37,109.74 210.06,109.42 			"/>
			<polygon class="st0" points="208.97,82.44 207.88,81.66 205.38,83.7 203.36,85.74 201.64,87.93 200.39,89.97 199.61,92.01
				199.14,94.05 198.83,95.93 199.3,97.82 199.77,99.54 200.55,101.42 201.48,102.99 202.89,104.72 204.29,106.29 205.85,107.7
				207.41,109.11 209.43,110.52 210.06,109.27 208.34,108.17 206.78,106.76 205.22,105.35 203.82,103.78 202.73,102.37
				201.79,100.8 201.02,99.23 200.55,97.5 200.39,95.93 200.39,94.05 200.86,92.33 201.64,90.6 202.89,88.56 204.29,86.68
				206.32,84.64 208.81,82.6 207.72,81.82 208.81,82.6 208.97,82.13 208.81,81.66 208.34,81.5 207.88,81.66 			"/>
			<polygon class="st0" points="208.97,94.99 208.97,94.99 207.72,93.27 206.78,91.7 206.63,89.97 206.63,88.4 206.94,86.83
				207.56,85.42 208.34,83.86 208.97,82.44 207.72,81.82 207.1,83.23 206.32,84.8 205.69,86.52 205.38,88.4 205.07,89.97
				205.54,92.01 206.47,93.89 208.03,95.94 208.03,95.94 			"/>
			<polygon class="st0" points="222.54,116.8 222.54,116.8 221.91,113.19 220.82,110.05 219.26,106.92 217.39,104.09 215.2,101.42
				213.02,99.07 210.84,97.03 208.97,94.99 208.03,95.94 209.9,97.97 212.09,100.01 214.27,102.37 216.14,104.72 218.01,107.54
				219.57,110.37 220.66,113.5 221.29,116.8 221.29,116.8 			"/>
			<polygon class="st0" points="209.9,141.11 209.9,142.37 213.49,139.54 216.3,136.72 218.79,133.74 220.35,130.6 221.6,127.31
				222.22,123.86 222.54,120.4 222.54,116.8 221.29,116.8 221.29,120.4 220.97,123.86 220.35,126.99 219.1,129.97 217.54,133.11
				215.36,135.78 212.56,138.6 209.28,141.11 209.28,142.37 209.28,141.11 208.97,141.43 208.97,142.05 209.43,142.37 209.9,142.37
							"/>
			<polygon class="st0" points="222.54,166.84 222.54,166.84 222.69,164.96 222.69,163.23 222.54,161.5 222.22,159.78
				222.07,158.05 221.6,156.33 221.13,154.76 220.35,153.03 219.57,151.46 218.79,149.9 217.54,148.33 216.3,146.76 215.05,145.35
				213.49,143.94 211.93,142.68 209.9,141.11 209.28,142.37 211,143.62 212.56,144.88 214.11,146.29 215.36,147.7 216.61,149.27
				217.54,150.52 218.32,152.09 219.1,153.66 219.88,155.07 220.35,156.64 220.82,158.05 220.97,159.78 221.29,161.5 221.13,163.23
				221.13,164.96 221.29,166.84 221.29,166.84 			"/>
			<polygon class="st0" points="208.97,188.64 208.97,188.64 210.84,186.6 213.02,184.56 215.21,182.21 217.39,179.54
				219.26,176.72 220.82,173.58 221.91,170.44 222.54,166.84 221.29,166.84 220.66,170.13 219.57,173.27 218.01,176.09
				216.14,178.92 214.27,181.27 212.09,183.62 209.9,185.66 208.03,187.7 208.03,187.7 			"/>
			<polygon class="st0" points="207.88,201.82 208.97,201.04 208.34,199.62 207.56,198.05 206.94,196.64 206.63,195.23
				206.63,193.5 206.78,191.94 207.72,190.37 208.97,188.64 208.03,187.7 206.47,189.74 205.54,191.62 205.07,193.5 205.38,195.23
				205.69,196.96 206.32,198.68 207.1,200.25 207.72,201.66 208.81,200.88 207.72,201.66 208.03,201.98 208.65,201.98
				208.97,201.51 208.97,201.04 			"/>
			<polygon class="st0" points="210.06,174.21 209.43,173.11 207.41,174.52 205.85,175.94 204.29,177.35 202.89,178.92
				201.48,180.64 200.55,182.21 199.77,184.09 199.3,185.82 198.83,187.7 199.14,189.43 199.61,191.47 200.39,193.66 201.64,195.54
				203.36,197.74 205.38,199.78 207.88,201.82 208.81,200.88 206.32,198.84 204.29,196.8 202.89,194.92 201.64,193.03
				200.86,191.15 200.39,189.43 200.39,187.7 200.55,186.13 201.02,184.41 201.79,182.84 202.73,181.27 203.82,179.86
				205.22,178.29 206.78,176.88 208.34,175.46 210.06,174.37 209.43,173.27 210.06,174.37 210.37,174.05 210.37,173.58
				209.9,173.11 209.43,173.11 			"/>
			<polygon class="st0" points="197.27,167.15 197.27,167.15 197.27,169.66 198.05,172.02 199.45,173.9 201.33,175.15
				203.51,175.78 205.69,175.94 207.88,175.46 210.06,174.21 209.43,173.27 207.57,174.21 205.69,174.68 203.51,174.52
				201.95,173.9 200.39,172.95 199.3,171.39 198.52,169.66 198.52,167.15 198.52,167.15 			"/>
			<polygon class="st0" points="208.19,160.88 208.19,159.94 206.63,159.15 205.07,158.68 203.36,159.15 201.79,159.62
				200.08,160.88 198.67,162.45 197.74,164.64 197.27,167.15 198.52,167.15 198.99,164.96 199.92,163.07 201.02,161.82
				202.42,160.88 203.67,160.41 205.07,160.25 206.32,160.41 207.25,160.88 207.25,159.94 207.25,160.88 207.72,161.03
				208.19,160.88 208.34,160.41 208.19,159.94 			"/>
			<polygon class="st0" points="212.87,160.88 212.87,160.88 211.93,163.23 210.68,164.64 209.75,165.11 208.34,164.8
				207.57,164.17 207.09,163.39 207.25,162.13 208.19,160.88 207.25,159.94 206.01,161.82 205.85,163.39 206.63,165.11
				208.03,166.05 209.75,166.37 211.62,165.58 213.18,163.86 214.11,160.88 214.11,160.88 			"/>
			<polygon class="st0" points="189.01,142.21 192.6,142.84 196.81,144.25 201.02,146.13 205.07,148.8 208.5,151.46 211,154.6
				212.71,157.74 212.87,160.88 214.11,160.88 213.96,157.42 212.24,153.97 209.43,150.52 205.69,147.54 201.64,144.88
				197.12,142.99 192.9,141.58 189.01,140.95 			"/>
			<polygon class="st0" points="189.01,140.95 188.54,141.11 188.38,141.58 188.54,142.05 189.01,142.21 			"/>
			<polygon class="st0" points="243.9,139.39 244.05,139.54 245.61,140.64 247.17,141.43 248.89,142.05 250.91,142.52
				250.91,140.95 249.2,140.8 247.8,140.17 246.24,139.39 244.68,138.29 244.83,138.44 			"/>
			<polygon class="st0" points="231.89,134.99 232.51,135.93 236.26,136.09 239.38,137.03 242.03,138.29 243.9,139.39
				244.83,138.44 242.65,137.03 239.69,135.78 236.26,134.84 232.51,134.68 233.14,135.62 232.51,134.68 232.05,134.84
				231.89,135.31 232.05,135.78 232.51,135.93 			"/>
			<polygon class="st0" points="227.84,118.84 227.06,119.62 228.3,120.4 229.71,121.35 231.11,122.76 232.2,124.48 232.98,126.68
				233.29,129.03 232.98,131.86 231.89,134.99 233.14,135.62 234.23,132.17 234.85,129.03 234.23,126.37 233.45,123.86
				232.05,121.82 230.64,120.4 228.93,119.15 227.37,118.36 226.59,119.15 227.37,118.36 226.9,118.52 226.59,118.84 226.74,119.31
				227.06,119.62 			"/>
			<polygon class="st0" points="226.12,134.05 226.12,134.05 227.06,132.48 227.68,130.6 228.3,128.88 228.62,126.84 228.93,124.95
				228.77,123.07 228.46,120.88 227.84,118.84 226.59,119.15 227.21,121.19 227.52,123.07 227.37,124.95 227.37,126.84
				227.06,128.56 226.43,130.29 225.81,131.86 224.87,133.43 224.87,133.43 224.87,133.43 224.87,133.9 225.34,134.37
				225.81,134.37 226.12,134.05 			"/>
			<polygon class="st0" points="223.31,137.82 223.31,137.82 223.94,137.03 224.72,135.93 225.5,134.99 226.12,134.05
				224.87,133.43 224.25,134.37 223.78,135.31 223,136.09 222.38,136.88 222.38,136.88 222.38,136.88 222.22,137.35 222.38,137.82
				222.85,137.97 223.31,137.82 			"/>
			<polygon class="st0" points="216.61,141.11 216.61,142.37 218.17,141.74 219.73,140.95 221.6,139.39 223.31,137.82
				222.38,136.88 220.66,138.44 219.1,139.7 217.54,140.48 216.3,141.11 216.3,142.37 216.3,141.11 215.99,141.43 215.83,141.9
				216.14,142.21 216.61,142.37 			"/>
			<polygon class="st0" points="223.78,146.29 223.78,146.29 222.85,145.35 221.91,144.41 221.13,143.62 220.04,142.84
				219.1,142.21 218.32,141.74 217.39,141.43 216.61,141.11 216.3,142.37 217.08,142.68 217.7,142.99 218.48,143.46 219.42,144.09
				220.19,144.56 220.97,145.35 221.91,146.29 222.85,147.23 222.85,147.23 222.85,147.23 223.31,147.38 223.78,147.23
				223.94,146.76 223.78,146.29 			"/>
			<polygon class="st0" points="225.97,149.42 225.97,149.42 225.5,148.64 225.03,147.86 224.41,147.07 223.78,146.29
				222.85,147.23 223.47,148.01 223.78,148.48 224.25,149.27 224.72,150.05 224.72,150.05 224.72,150.05 225.03,150.37
				225.65,150.37 225.97,149.9 225.97,149.42 			"/>
			<polygon class="st0" points="227.06,164.01 227.84,164.8 228.46,162.76 228.77,160.56 228.93,158.52 228.62,156.64 228.3,154.6
				227.68,152.88 226.9,150.99 225.97,149.42 224.72,150.05 225.65,151.62 226.43,153.19 227.06,154.92 227.37,156.64
				227.37,158.52 227.52,160.56 227.21,162.45 226.59,164.48 227.37,165.27 226.59,164.48 226.74,164.96 227.06,165.27
				227.52,165.27 227.84,164.8 			"/>
			<polygon class="st0" points="232.51,147.7 231.89,148.64 232.98,151.78 233.29,154.6 232.98,156.96 232.2,159.15 231.11,160.88
				229.71,162.29 228.3,163.23 227.06,164.01 227.37,165.27 228.93,164.49 230.64,163.23 232.05,161.82 233.45,159.78
				234.23,157.27 234.85,154.6 234.23,151.46 233.14,148.01 232.51,148.96 233.14,148.01 232.83,147.7 232.36,147.7 231.89,148.17
				231.89,148.64 			"/>
			<polygon class="st0" points="244.05,144.09 244.05,144.09 242.03,145.35 239.38,146.6 236.26,147.54 232.51,147.7 232.51,148.96
				236.26,148.8 239.69,147.86 242.65,146.6 244.68,145.35 244.68,145.35 			"/>
			<polygon class="st0" points="250.91,142.52 250.91,140.95 248.89,141.43 247.17,142.05 245.61,142.99 244.05,144.09
				244.68,145.35 246.24,144.25 247.8,143.31 249.2,142.68 250.91,142.52 250.91,140.95 250.91,142.52 251.38,142.21 251.69,141.74
				251.38,141.27 250.91,140.95 			"/>
			<polygon class="st0" points="223.63,137.97 223.63,137.97 224.25,137.19 225.03,136.25 225.65,135.15 226.43,134.21
				224.56,133.27 224.09,134.21 223.47,134.99 222.69,135.93 222.07,136.72 222.07,136.72 			"/>
			<polygon class="st0" points="216.77,140.8 216.61,142.68 218.17,142.05 219.88,141.11 221.76,139.7 223.63,137.97 222.07,136.72
				220.51,138.13 218.95,139.54 217.54,140.17 216.3,140.8 216.14,142.68 216.3,140.8 212.71,141.74 216.14,142.68 			"/>
			<polygon class="st0" points="224.09,146.13 224.09,146.13 223,145.19 222.07,144.25 221.29,143.31 220.19,142.68 219.26,142.05
				218.48,141.43 217.54,141.11 216.77,140.8 216.14,142.68 216.92,142.99 217.54,143.31 218.32,143.62 219.26,144.25
				220.04,144.88 220.82,145.5 221.76,146.44 222.54,147.38 222.54,147.38 			"/>
			<polygon class="st0" points="225.03,148.8 226.28,149.27 225.65,148.48 225.19,147.7 224.72,146.91 224.09,146.13 222.54,147.38
				223.16,148.17 223.63,148.64 224.09,149.42 224.41,150.21 225.65,150.68 224.41,150.21 225.03,150.99 225.65,150.68 			"/>
			<polygon class="st0" points="226.43,134.21 225.03,134.68 227.52,136.25 229.08,137.97 229.86,139.86 230.02,142.05
				229.71,144.09 228.77,145.82 227.21,147.54 225.03,148.8 225.65,150.68 228.46,149.11 230.33,147.07 231.58,144.72 232.2,142.05
				231.73,139.54 230.64,137.03 228.77,134.68 225.97,132.8 224.56,133.27 225.97,132.8 225.19,132.33 224.56,133.27 			"/>
			<polygon class="st0" points="216.61,141.11 216.61,142.37 218.17,141.74 219.73,140.95 221.6,139.39 223.31,137.82
				222.38,136.88 220.66,138.44 219.1,139.7 217.54,140.48 216.3,141.11 216.3,142.37 216.3,141.11 215.99,141.43 215.83,141.9
				216.14,142.21 216.61,142.37 			"/>
			<polygon class="st0" points="223,146.13 223.78,146.29 222.85,145.35 221.91,144.41 221.13,143.62 220.04,142.84 219.1,142.21
				218.32,141.74 217.39,141.43 216.61,141.11 216.3,142.37 217.08,142.68 217.7,142.99 218.48,143.46 219.42,144.09 220.19,144.56
				220.97,145.35 221.91,146.29 222.85,147.23 223.63,147.38 222.85,147.23 223.31,147.38 223.78,147.23 223.94,146.76
				223.78,146.29 			"/>
			<polygon class="st0" points="223.31,137.82 222.54,137.97 223.78,138.6 224.56,139.7 225.03,140.8 225.19,142.05 225.03,143.15
				224.56,144.41 223.94,145.35 223,146.13 223.63,147.38 224.87,146.29 225.81,145.03 226.28,143.46 226.74,142.05 226.28,140.48
				225.81,139.07 224.72,137.66 223.16,136.72 222.38,136.88 223.16,136.72 222.69,136.72 222.22,137.19 222.22,137.66
				222.54,137.97 			"/>
		</g>
	</g>
	<g>
		<g>
			<polygon class="st0" points="136.82,145.7 136.6,146.14 136.82,146.58 137.26,146.8 137.71,146.59 			"/>
			<polygon class="st0" points="140.82,115.96 140.82,115.96 142.93,118.29 143.93,121.72 144.28,125.59 143.74,129.9
				142.54,134.43 141,138.85 138.91,142.72 136.82,145.7 137.71,146.59 140.02,143.39 142.11,139.52 143.86,134.88 145.07,130.35
				145.6,125.6 145.26,121.28 144.03,117.63 141.7,115.08 141.7,115.08 			"/>
			<polygon class="st0" points="138.07,119.82 137.4,119.16 135.85,118.93 134.85,118.16 134.63,117.27 134.74,116.27
				135.62,115.17 136.62,114.84 138.5,114.96 140.82,115.96 141.7,115.08 138.93,113.63 136.61,113.52 134.73,114.28 133.63,115.61
				133.3,117.27 133.97,119.04 135.19,120.03 137.41,120.48 136.74,119.82 137.41,120.48 137.85,120.27 138.07,119.82
				137.85,119.38 137.4,119.16 			"/>
			<polygon class="st0" points="125.36,122.55 125.36,122.55 127.46,123.99 129.68,124.89 131.78,125 133.88,124.68 135.32,123.91
				136.75,122.92 137.52,121.48 138.07,119.82 136.74,119.82 136.41,120.81 135.64,121.81 134.65,122.8 133.43,123.35
				131.78,123.68 130.12,123.56 128.12,122.89 126.24,121.67 126.24,121.67 			"/>
			<polygon class="st0" points="129.74,109.74 129.41,108.52 126.98,109.17 125.1,110.38 123.67,112.04 122.57,114.03
				122.13,116.24 122.47,118.56 123.58,120.78 125.36,122.55 126.24,121.67 124.47,119.89 123.8,118.12 123.46,116.24 123.9,114.47
				124.55,112.93 125.99,111.27 127.64,110.28 129.63,109.63 129.3,108.41 129.63,109.63 129.96,109.29 130.07,108.96
				129.85,108.52 129.41,108.52 			"/>
			<polygon class="st0" points="109.56,90.21 108.23,90.43 107.91,93.63 107.92,96.51 108.26,99.28 108.82,101.6 109.71,103.59
				110.82,105.37 111.93,106.92 113.59,107.92 115.14,108.81 117.02,109.59 118.8,110.03 121.01,110.26 123.11,110.38
				125.21,110.28 127.31,110.17 129.74,109.74 129.3,108.41 127.31,108.84 125.21,108.95 123.11,109.05 121.01,108.93
				119.23,108.71 117.46,108.26 115.8,107.7 114.25,106.81 113.03,105.81 111.7,104.48 110.81,102.93 110.14,101.16 109.58,98.84
				109.24,96.51 109.24,93.64 109.56,90.43 108.23,90.65 109.56,90.43 109.34,89.99 108.89,89.77 108.45,89.99 108.23,90.43 			"/>
			<polygon class="st0" points="118.43,99.09 118.43,99.09 116.33,98.75 114.56,98.3 113.23,97.19 112.12,96.08 111.23,94.75
				110.67,93.31 110.12,91.65 109.56,90.21 108.23,90.65 108.79,92.09 109.35,93.75 110.13,95.41 111.24,96.96 112.13,98.29
				113.9,99.4 115.89,100.07 118.44,100.41 118.44,100.41 			"/>
			<polygon class="st0" points="143.44,104.91 143.44,104.91 140.45,102.8 137.46,101.35 134.14,100.24 130.82,99.56 127.39,99.22
				124.18,99.1 121.2,99.2 118.43,99.09 118.44,100.41 121.2,100.53 124.19,100.43 127.39,100.55 130.38,100.89 133.7,101.56
				136.8,102.46 139.79,103.9 142.56,105.79 142.56,105.79 			"/>
			<polygon class="st0" points="151.7,131.03 152.59,131.92 153.13,127.39 153.12,123.41 152.78,119.54 151.66,116.21 150.21,113
				148.21,110.12 145.99,107.46 143.44,104.91 142.56,105.79 145.11,108.34 147.33,111 149.11,113.66 150.33,116.65 151.45,119.97
				151.79,123.4 151.8,127.38 151.26,131.47 152.15,132.36 151.26,131.47 151.26,131.92 151.71,132.36 152.26,132.25 152.59,131.92
							"/>
			<polygon class="st0" points="178.83,140.29 178.83,140.29 177.61,138.85 176.39,137.63 175.06,136.52 173.62,135.52
				172.29,134.41 170.73,133.52 169.29,132.74 167.52,132.08 165.86,131.52 164.2,130.96 162.21,130.73 160.22,130.51
				158.34,130.39 156.24,130.49 154.25,130.71 151.7,131.03 152.15,132.36 154.25,132.04 156.24,131.82 158.34,131.72
				160.22,131.83 162.21,132.06 163.76,132.29 165.42,132.84 167.08,133.4 168.63,133.85 170.07,134.63 171.4,135.3 172.73,136.4
				174.17,137.4 175.28,138.73 176.5,139.95 177.95,141.17 177.95,141.17 			"/>
			<polygon class="st0" points="184.65,165.3 184.65,165.3 184.53,162.54 184.64,159.55 184.51,156.35 184.17,152.92 183.5,149.6
				182.38,146.28 180.94,143.29 178.83,140.29 177.95,141.17 179.83,143.95 181.28,146.94 182.18,150.04 182.85,153.36
				183.19,156.34 183.31,159.55 183.21,162.53 183.32,165.3 183.32,165.3 			"/>
			<polygon class="st0" points="193.2,175.39 193.41,174.07 191.98,173.51 190.32,172.95 188.88,172.39 187.66,171.62 186.44,170.4
				185.44,169.18 184.99,167.41 184.65,165.3 183.32,165.3 183.66,167.84 184.33,169.84 185.33,171.5 186.77,172.5 188.22,173.5
				189.88,174.28 191.54,174.84 192.97,175.39 193.19,174.07 192.97,175.39 193.42,175.4 193.86,174.95 193.75,174.4 193.41,174.07
							"/>
			<polygon class="st0" points="175.22,154.33 174,153.99 173.57,156.42 173.46,158.53 173.36,160.63 173.47,162.73 173.7,164.94
				174.15,166.71 174.93,168.59 175.82,170.14 176.82,171.81 178.26,172.8 180.03,173.92 182.14,174.92 184.35,175.37
				187.12,175.71 189.99,175.72 193.2,175.39 193.19,174.07 189.99,174.39 187.11,174.38 184.79,174.04 182.58,173.59
				180.69,172.81 179.14,171.92 177.92,170.7 176.92,169.49 176.03,167.93 175.48,166.27 175.03,164.5 174.8,162.73 174.68,160.63
				174.79,158.53 174.89,156.43 175.33,154.44 174.11,154.1 175.33,154.44 175.33,154 175,153.66 174.33,153.66 174,153.99 			"/>
			<polygon class="st0" points="161.19,158.38 161.19,158.38 162.96,160.15 165.18,161.27 167.5,161.6 169.71,161.17 171.7,160.07
				173.35,158.64 174.56,156.76 175.22,154.33 174.11,154.1 173.46,156.09 172.47,157.75 170.81,159.18 169.26,159.84 167.5,160.28
				165.61,159.94 163.84,159.27 162.07,157.5 162.07,157.5 			"/>
			<polygon class="st0" points="164.47,146.22 163.8,145.56 162.14,146.11 160.71,146.87 159.83,148.42 159.06,149.86
				158.73,151.96 158.85,154.06 159.74,156.27 161.19,158.38 162.07,157.5 160.85,155.61 160.18,153.62 160.06,151.96 160.39,150.3
				160.94,149.09 161.82,147.98 162.81,147.21 163.81,146.88 163.14,146.22 163.81,146.88 164.25,146.67 164.47,146.22
				164.25,145.78 163.8,145.56 			"/>
			<polygon class="st0" points="167.77,142.92 167.77,142.92 168.78,145.24 168.89,147.12 168.57,148.12 167.35,148.89
				166.36,148.99 165.47,148.77 164.69,147.77 164.47,146.22 163.14,146.22 163.59,148.43 164.59,149.65 166.36,150.32
				168.02,149.99 169.45,149 170.22,147.12 170.1,144.8 168.66,142.03 168.66,142.03 			"/>
			<polygon class="st0" points="137.71,146.59 140.69,144.49 144.66,142.51 148.97,140.87 153.72,139.89 158.03,139.35
				162.02,139.8 165.45,140.81 167.77,142.92 168.66,142.03 166.11,139.7 162.45,138.48 158.03,138.02 153.28,138.56 148.52,139.54
				143.99,141.41 140.02,143.39 136.82,145.7 			"/>
			<polygon class="st0" points="136.82,145.7 136.6,146.14 136.82,146.58 137.26,146.8 137.71,146.59 			"/>
			<polygon class="st0" points="174.52,105.78 174.74,105.78 176.62,105.45 178.28,104.9 179.94,104.13 181.7,103.03 180.59,101.92
				179.27,103.02 177.83,103.57 176.18,104.12 174.3,104.45 174.52,104.45 			"/>
			<polygon class="st0" points="162.93,111.16 164.03,111.39 166.79,108.85 169.66,107.31 172.42,106.32 174.52,105.78
				174.52,104.45 171.98,104.99 168.99,106.2 165.9,107.96 163.14,110.5 164.25,110.72 163.14,110.5 162.93,110.94 163.15,111.38
				163.59,111.6 164.03,111.39 			"/>
			<polygon class="st0" points="148.63,102.6 148.64,103.71 150.07,103.38 151.73,103.05 153.72,103.06 155.71,103.51
				157.82,104.51 159.7,105.95 161.48,108.17 162.93,111.16 164.25,110.72 162.58,107.51 160.8,104.85 158.48,103.41 156.15,102.18
				153.72,101.73 151.73,101.73 149.63,102.05 147.97,102.6 147.97,103.71 147.97,102.6 147.75,103.04 147.75,103.49 148.19,103.71
				148.64,103.71 			"/>
			<polygon class="st0" points="158.18,114.58 158.18,114.58 157.73,112.8 156.84,111.03 156.06,109.37 154.84,107.71
				153.73,106.16 152.29,104.94 150.52,103.6 148.63,102.6 147.97,103.71 149.86,104.71 151.41,105.82 152.63,107.26 153.96,108.59
				154.96,110.03 155.74,111.69 156.41,113.24 156.85,115.01 156.85,115.01 156.85,115.01 157.19,115.35 157.85,115.35
				158.18,115.02 158.18,114.58 			"/>
			<polygon class="st0" points="158.86,119.22 158.86,119.22 158.74,118.23 158.52,116.9 158.4,115.68 158.18,114.58 156.85,115.01
				157.08,116.12 157.42,117.12 157.42,118.22 157.53,119.22 157.53,119.22 157.53,119.22 157.75,119.66 158.2,119.88
				158.64,119.66 158.86,119.22 			"/>
			<polygon class="st0" points="156.45,126.29 157.33,127.18 157.99,125.63 158.54,123.98 158.75,121.54 158.86,119.22
				157.53,119.22 157.43,121.54 157.21,123.53 156.66,125.19 156.22,126.51 157.11,127.4 156.22,126.51 156.23,126.95 156.45,127.4
				156.89,127.4 157.33,127.18 			"/>
			<polygon class="st0" points="165.18,124.88 165.18,124.88 163.85,124.88 162.52,124.87 161.42,124.87 160.09,125.09
				158.99,125.31 158.1,125.52 157.22,125.96 156.45,126.29 157.11,127.4 157.89,127.07 158.55,126.85 159.43,126.63 160.54,126.42
				161.42,126.2 162.53,126.2 163.85,126.2 165.18,126.21 165.18,126.21 165.18,126.21 165.62,125.99 165.84,125.54 165.62,125.1
				165.18,124.88 			"/>
			<polygon class="st0" points="168.94,125.55 168.94,125.55 168.05,125.33 167.17,125.11 166.17,124.99 165.18,124.88
				165.18,126.21 166.18,126.32 166.73,126.43 167.62,126.66 168.5,126.88 168.5,126.88 168.5,126.88 168.94,126.88 169.39,126.44
				169.27,125.89 168.94,125.55 			"/>
			<polygon class="st0" points="180.03,135.1 181.13,135.1 180.13,133.22 178.8,131.45 177.47,129.89 175.92,128.78 174.25,127.56
				172.59,126.78 170.71,126 168.94,125.55 168.5,126.88 170.27,127.33 171.93,127.89 173.6,128.67 175.03,129.67 176.37,131
				177.92,132.33 179.03,133.88 180.03,135.76 181.14,135.77 180.03,135.76 180.47,135.99 180.92,135.99 181.25,135.66
				181.13,135.1 			"/>
			<polygon class="st0" points="172.35,119.7 172.58,120.81 175.57,122.26 177.78,124.03 179.23,125.92 180.23,128.02
				180.68,130.01 180.68,132 180.36,133.66 180.03,135.1 181.14,135.77 181.68,134.11 182.01,132.01 182,130.02 181.55,127.58
				180.33,125.26 178.89,122.93 176.23,121.15 173.01,119.49 173.24,120.59 173.01,119.49 172.57,119.48 172.24,119.81
				172.24,120.48 172.58,120.81 			"/>
			<polygon class="st0" points="177.96,109 177.96,109 177.41,111.31 176.43,114.08 174.89,116.94 172.35,119.7 173.24,120.59
				175.77,117.83 177.53,114.74 178.74,111.76 179.29,109.44 179.29,109.44 			"/>
			<polygon class="st0" points="181.7,103.03 180.59,101.92 179.49,103.69 178.72,105.35 178.28,107.11 177.96,109 179.29,109.44
				179.62,107.56 180.05,105.79 180.6,104.36 181.7,103.03 180.59,101.92 181.7,103.03 181.81,102.48 181.7,101.93 181.15,101.81
				180.59,101.92 			"/>
			<polygon class="st0" points="159.19,119.11 159.19,119.11 159.08,118.12 158.96,116.9 158.63,115.68 158.51,114.47
				156.52,115.12 156.86,116.12 156.97,117.11 157.09,118.33 157.2,119.33 157.2,119.33 			"/>
			<polygon class="st0" points="156.33,125.96 157.55,127.4 158.21,125.86 158.76,123.98 159.09,121.65 159.19,119.11 157.2,119.33
				157.1,121.43 156.99,123.53 156.44,124.97 156,126.29 157.22,127.73 156,126.29 154.13,129.49 157.22,127.73 			"/>
			<polygon class="st0" points="165.29,124.55 165.29,124.55 163.85,124.66 162.52,124.65 161.31,124.54 160.09,124.87
				158.98,125.08 157.99,125.19 157.11,125.63 156.33,125.96 157.22,127.73 158,127.4 158.66,127.18 159.43,126.85 160.54,126.64
				161.53,126.53 162.53,126.42 163.86,126.42 165.07,126.54 165.07,126.54 			"/>
			<polygon class="st0" points="167.83,125.77 169.05,125.22 168.05,125.11 167.17,124.89 166.28,124.66 165.29,124.55
				165.07,126.54 166.07,126.65 166.73,126.66 167.62,126.88 168.39,127.21 169.61,126.66 168.39,127.21 169.39,127.33
				169.61,126.66 			"/>
			<polygon class="st0" points="158.51,114.47 157.85,115.79 160.73,115.14 163.05,115.25 164.93,116.03 166.59,117.47
				167.82,119.14 168.37,121.02 168.49,123.34 167.83,125.77 169.61,126.66 170.48,123.57 170.37,120.8 169.58,118.26
				168.14,115.93 166.03,114.49 163.48,113.48 160.5,113.14 157.18,113.8 156.52,115.12 157.18,113.8 156.3,114.02 156.52,115.12
							"/>
			<polygon class="st0" points="156.45,126.29 157.33,127.18 157.99,125.63 158.54,123.98 158.75,121.54 158.86,119.22
				157.53,119.22 157.43,121.54 157.21,123.53 156.66,125.19 156.22,126.51 157.11,127.4 156.22,126.51 156.23,126.95 156.45,127.4
				156.89,127.4 157.33,127.18 			"/>
			<polygon class="st0" points="164.52,125.32 165.18,124.88 163.85,124.88 162.52,124.87 161.42,124.87 160.09,125.09
				158.99,125.31 158.1,125.52 157.22,125.96 156.45,126.29 157.11,127.4 157.89,127.07 158.55,126.85 159.43,126.63 160.54,126.42
				161.42,126.2 162.53,126.2 163.85,126.2 165.18,126.21 165.84,125.77 165.18,126.21 165.62,125.99 165.84,125.54 165.62,125.1
				165.18,124.88 			"/>
			<polygon class="st0" points="158.86,119.22 158.42,119.88 159.74,119.44 161.07,119.67 162.18,120.12 163.18,120.89
				163.84,121.78 164.4,123 164.62,124.11 164.52,125.32 165.84,125.77 165.95,124.11 165.72,122.56 164.95,121.12 164.28,119.79
				162.84,119.01 161.51,118.34 159.74,118.12 157.97,118.56 157.53,119.22 157.97,118.56 157.64,118.89 157.64,119.55
				157.97,119.88 158.42,119.88 			"/>
		</g>
	</g>

		<rect x="50.25" y="51.62" transform="matrix(0.7071 -0.7071 0.7071 0.7071 -59.0721 142.613)" class="st1" width="184.72" height="181.99"/>

		<rect x="42.04" y="43.41" transform="matrix(0.7071 -0.7071 0.7071 0.7071 -59.0723 142.6138)" class="st2" width="201.14" height="198.41"/>
</g>
</svg>
