
<svg version="1.1" id="top_x5F_ornament" xmlns="http://www.w3.org/2000/svg" xmlns:xlink="http://www.w3.org/1999/xlink" x="0px"
	 y="0px" viewBox="0 0 514.06 112"  height= "100" width="800" style="enable-background:new 0 0 514.06 112;" xml:space="preserve">
<style type="text/css">
	.st0{fill:#D7C57D;}
	.st1{fill-rule:evenodd;clip-rule:evenodd;fill:#D7C57D;}
</style>
<g>
	<g>
		<rect x="41.56" y="28.92" class="st0" width="174" height="1.23"/>
		<rect x="298.5" y="28.92" class="st0" width="174" height="1.23"/>
	</g>
	<g>
		<path class="st0" d="M188.14,49.46c-3.93,10.22,2.39,14.8,2.39,14.8c0.83-20.95,15.49-22.47,15.49-22.47
			c-8.13-1.72-27.49,0.14-32.19,12.95c-1.68,4.58-3.57,5.09-3.57,5.09C179.95,61.88,188.14,49.46,188.14,49.46z"/>
		<path class="st0" d="M323.54,64.26c0,0,6.32-4.58,2.39-14.8c0,0,8.18,12.42,17.88,10.37c0,0-1.88-0.51-3.57-5.09
			c-4.71-12.81-24.06-14.67-32.19-12.95C308.04,41.79,322.71,43.31,323.54,64.26z"/>
	</g>
	<g>
		<path class="st0" d="M202.27,71.04c7.46,6.76,19.12-0.53,16.9-5.9c0,0-6.01,6.8-13.15-0.41c-3.46-4.13,0.12-11.45,0.12-11.45
			s1.83,7.24,9.5,3.7c0,0-4.13-1.08-3.05-5.7c1.08-4.62,9.32-7.58,16.69-3.16c7.37,4.42,16.22,20.29,3.64,26.18
			c-3.4,0.79-5.5-0.39-5.5-3.27c0,0-10.09,4.4-5.77,11.67c4.32,7.27,12.85,3.07,12.85,3.07s-0.79,7.37,6.39,8.74
			c0,0-2.16-7.07,1.18-11.59c0,0,3.05,2.36,7.27,0.69c0,0-3.14-1.77-3.34-6.58c-0.2-4.81,2.13-27.21-20.66-34.02
			C202.53,36.2,190.89,60.73,202.27,71.04z"/>
		<path class="st0" d="M272,82.93c3.34,4.52,1.18,11.59,1.18,11.59c7.17-1.37,6.39-8.74,6.39-8.74s8.52,4.2,12.85-3.07
			c4.32-7.27-5.77-11.67-5.77-11.67c0,2.88-2.1,4.06-5.5,3.27c-12.57-5.89-3.72-21.76,3.64-26.18c7.37-4.42,15.61-1.45,16.69,3.16
			c1.08,4.62-3.05,5.7-3.05,5.7c7.66,3.54,9.5-3.7,9.5-3.7s3.58,7.32,0.11,11.45c-7.14,7.2-13.15,0.41-13.15,0.41
			c-2.23,5.37,9.44,12.65,16.9,5.9c11.37-10.31-0.26-34.84-23.05-28.03c-22.79,6.81-20.47,29.21-20.66,34.02
			c-0.2,4.81-3.34,6.58-3.34,6.58C268.96,85.29,272,82.93,272,82.93z"/>
	</g>
	<g>
		<g>
			<g>
				<path class="st0" d="M209.08,22.91c4.37,3.02,12.56-0.99,14.74-0.65c0,0-3.68,3.2,1,6.69c0,0,2.64-6.72,7.49-4.89
					c3.54,1.33,6.53,5.12,8.37,7.63c0,0-0.87-13.36-12.81-15.2c-11.06-1.71-16.39,5.35-19.54,2.69c-1.64-1.61,1-5.83,4.63-2.63
					c0,0,0.82-4.17-3.49-3.59C205.17,13.52,204.71,19.88,209.08,22.91z"/>
			</g>
			<g>
				<path class="st0" d="M281.75,24.05c4.85-1.83,7.49,4.89,7.49,4.89c4.68-3.49,1-6.69,1-6.69c2.18-0.34,10.37,3.68,14.74,0.65
					c4.37-3.03,3.91-9.38-0.4-9.96c-4.31-0.58-3.49,3.59-3.49,3.59c3.63-3.21,6.26,1.02,4.63,2.63c-3.15,2.67-8.48-4.39-19.54-2.69
					c-11.94,1.84-12.81,15.2-12.81,15.2C275.22,29.17,278.21,25.38,281.75,24.05z"/>
			</g>
		</g>
	</g>
	<path class="st0" d="M239.13,15.99c0,0,3.65-3.03,6.31,1.21c2.66,4.24,5,3.7,5,3.7c-1.77,1.37-1.62,2.8-1.62,2.8
		c5.46,1.18,8.2-4.13,8.2-4.13s2.74,5.32,8.2,4.13c0,0,0.16-1.43-1.62-2.8c0,0,2.34,0.54,5-3.7c2.66-4.24,6.31-1.21,6.31-1.21
		s0.62-6.77-6.52-5.15c0,0-0.21-1.45-1.87-1.33c-1.66,0.12-2.91,3.9-2.91,3.9s1.16-3.49-0.46-6.85C261.56,3.2,257.03,0,257.03,0
		s-4.53,3.2-6.15,6.56c-1.62,3.36-0.46,6.85-0.46,6.85s-1.24-3.78-2.91-3.9c-1.66-0.12-1.87,1.33-1.87,1.33
		C238.51,9.22,239.13,15.99,239.13,15.99z M257.03,3.23c0,0,4.12,5.74,0,14.1C257.03,17.33,253.1,10.44,257.03,3.23z"/>
	<path class="st0" d="M254.67,61.87c0-7.15,1.05-12.95,2.35-12.95c1.3,0,2.35,5.8,2.35,12.95c0,7.15-1.05,12.95-2.35,12.95
		C255.73,74.82,254.67,69.02,254.67,61.87z"/>
	<path class="st0" d="M257.79,41.72c0,0,3.59-0.47,4.45-4.71c0.86-4.24-5.23-7.22-8.75-3.91C249.98,36.41,251.89,42.78,257.79,41.72
		z"/>
	<path class="st0" d="M256.34,86c-0.71,3.96-1.8,10.18-2.38,14.3c-0.99,7.1,3.06,11.7,3.07,11.71l0,0l0,0l0,0l0,0
		c0.01-0.01,4.06-4.61,3.07-11.71c-0.58-4.12-1.67-10.34-2.38-14.3c6.09,20.09,13.09,1.81,13.09,1.81c-4.61,2.69-8.76,1-11.49-2.86
		c0.05-0.11,0.08-0.23,0.08-0.35c0-0.34-0.21-0.63-0.5-0.76c0.29-0.13,0.5-0.42,0.5-0.76c0-0.46-0.38-0.83-0.84-0.83h-1.53l0,0
		h-1.53c-0.46,0-0.84,0.38-0.84,0.83c0,0.34,0.21,0.63,0.5,0.76c-0.29,0.13-0.5,0.42-0.5,0.76c0,0.13,0.03,0.25,0.08,0.35
		c-2.73,3.86-6.88,5.55-11.49,2.86C243.25,87.8,250.25,106.09,256.34,86z"/>
	<path class="st1" d="M22.75,43.98l3.61-5.11c0.71,1.15,1.97,1.92,3.43,1.92c1.8,0,3.31-1.18,3.83-2.81h164.16h1.11h39.55
		c0,0,2.85,0.22,2.85-1.23c0-1.22-2.85-1.23-2.85-1.23H196h-1.37H33.62c-0.52-1.63-2.03-2.81-3.83-2.81c-1.45,0-2.71,0.77-3.43,1.92
		l-3.61-5.11L0,36.76L22.75,43.98z M23.08,36.76l-2.23,3.31L6.64,36.76H23.08z"/>
	<path class="st1" d="M275.62,37.99h39.55h1.11h164.16c0.52,1.63,2.03,2.81,3.83,2.81c1.45,0,2.71-0.77,3.43-1.92l3.61,5.11
		l22.75-7.22l-22.75-7.22l-3.61,5.11c-0.71-1.15-1.97-1.92-3.43-1.92c-1.8,0-3.31,1.19-3.83,2.81H319.43h-1.37h-42.44
		c0,0-2.85,0.01-2.85,1.23C272.77,38.21,275.62,37.99,275.62,37.99z M507.26,36.76l-14.21,3.31l-2.23-3.31H507.26z"/>
</g>
<g>
</g>
<g>
</g>
<g>
</g>
<g>
</g>
<g>
</g>
<g>
</g>
<g>
</g>
<g>
</g>
<g>
</g>
<g>
</g>
<g>
</g>
<g>
</g>
<g>
</g>
<g>
</g>
<g>
</g>
</svg>
