 <svg version="1.1" id="top_x5F_ornament" xmlns="http://www.w3.org/2000/svg" xmlns:xlink="http://www.w3.org/1999/xlink" x="0px"
	 y="0px" viewBox="0 0 514.06 112"  height ="100" style="enable-background:new 0 0 514.06 112;" xml:space="preserve">
<style type="text/css">
	.st0{fill:#D7C57D;}
	.st1{fill-rule:evenodd;clip-rule:evenodd;fill:#D7C57D;}
</style>
<g>
	<g>
		<rect x="298.5" y="81.85" class="st0" width="174" height="1.23"/>
		<rect x="41.56" y="81.85" class="st0" width="174" height="1.23"/>
	</g>
	<g>
		<path class="st0" d="M325.92,62.54c3.93-10.22-2.39-14.8-2.39-14.8c-0.83,20.95-15.49,22.47-15.49,22.47
			c8.13,1.72,27.49-0.14,32.19-12.95c1.68-4.58,3.57-5.09,3.57-5.09C334.11,50.12,325.92,62.54,325.92,62.54z"/>
		<path class="st0" d="M190.52,47.74c0,0-6.32,4.58-2.39,14.8c0,0-8.18-12.42-17.88-10.37c0,0,1.88,0.51,3.57,5.09
			c4.71,12.81,24.06,14.67,32.19,12.95C206.02,70.21,191.35,68.69,190.52,47.74z"/>
	</g>
	<g>
		<path class="st0" d="M311.79,40.96c-7.46-6.76-19.12,0.53-16.9,5.9c0,0,6.01-6.8,13.15,0.41c3.46,4.13-0.12,11.45-0.12,11.45
			s-1.83-7.24-9.5-3.7c0,0,4.13,1.08,3.05,5.7c-1.08,4.62-9.32,7.58-16.69,3.16c-7.37-4.42-16.22-20.29-3.64-26.18
			c3.4-0.79,5.5,0.39,5.5,3.27c0,0,10.09-4.4,5.77-11.67c-4.32-7.27-12.85-3.07-12.85-3.07s0.79-7.37-6.39-8.74
			c0,0,2.16,7.07-1.18,11.59c0,0-3.05-2.36-7.27-0.69c0,0,3.14,1.77,3.34,6.58c0.2,4.81-2.13,27.21,20.66,34.02
			C311.53,75.8,323.17,51.27,311.79,40.96z"/>
		<path class="st0" d="M242.05,29.07c-3.34-4.52-1.18-11.59-1.18-11.59c-7.17,1.37-6.39,8.74-6.39,8.74s-8.52-4.2-12.85,3.07
			c-4.32,7.27,5.77,11.67,5.77,11.67c0-2.88,2.1-4.06,5.5-3.27c12.57,5.89,3.72,21.76-3.64,26.18c-7.37,4.42-15.61,1.45-16.69-3.16
			c-1.08-4.62,3.05-5.7,3.05-5.7c-7.66-3.54-9.5,3.7-9.5,3.7s-3.58-7.32-0.11-11.45c7.14-7.2,13.15-0.41,13.15-0.41
			c2.23-5.37-9.44-12.65-16.9-5.9c-11.37,10.31,0.26,34.84,23.05,28.03c22.79-6.81,20.47-29.21,20.66-34.02
			c0.2-4.81,3.34-6.58,3.34-6.58C245.1,26.71,242.05,29.07,242.05,29.07z"/>
	</g>
	<g>
		<g>
			<g>
				<path class="st0" d="M304.98,89.09c-4.37-3.02-12.56,0.99-14.74,0.65c0,0,3.68-3.2-1-6.69c0,0-2.64,6.72-7.49,4.89
					c-3.54-1.33-6.53-5.12-8.37-7.63c0,0,0.87,13.36,12.81,15.2c11.06,1.71,16.39-5.35,19.54-2.69c1.64,1.61-1,5.83-4.63,2.63
					c0,0-0.82,4.17,3.49,3.59C308.89,98.48,309.35,92.12,304.98,89.09z"/>
			</g>
			<g>
				<path class="st0" d="M232.31,87.95c-4.85,1.83-7.49-4.89-7.49-4.89c-4.68,3.49-1,6.69-1,6.69c-2.18,0.34-10.37-3.68-14.74-0.65
					c-4.37,3.03-3.91,9.38,0.4,9.96c4.31,0.58,3.49-3.59,3.49-3.59c-3.63,3.21-6.26-1.02-4.63-2.63c3.15-2.67,8.48,4.39,19.54,2.69
					c11.94-1.84,12.81-15.2,12.81-15.2C238.84,82.83,235.85,86.62,232.31,87.95z"/>
			</g>
		</g>
	</g>
	<path class="st0" d="M274.93,96.01c0,0-3.65,3.03-6.31-1.21c-2.66-4.24-5-3.7-5-3.7c1.77-1.37,1.62-2.8,1.62-2.8
		c-5.46-1.18-8.2,4.13-8.2,4.13s-2.74-5.32-8.2-4.13c0,0-0.16,1.43,1.62,2.8c0,0-2.34-0.54-5,3.7c-2.66,4.24-6.31,1.21-6.31,1.21
		s-0.62,6.77,6.52,5.15c0,0,0.21,1.45,1.87,1.33c1.66-0.12,2.91-3.9,2.91-3.9s-1.16,3.49,0.46,6.85c1.62,3.37,6.15,6.56,6.15,6.56
		s4.53-3.2,6.15-6.56c1.62-3.36,0.46-6.85,0.46-6.85s1.24,3.78,2.91,3.9c1.66,0.12,1.87-1.33,1.87-1.33
		C275.55,102.78,274.93,96.01,274.93,96.01z M257.03,108.77c0,0-4.12-5.74,0-14.1C257.03,94.67,260.96,101.56,257.03,108.77z"/>
	<path class="st0" d="M259.38,50.13c0,7.15-1.05,12.95-2.35,12.95c-1.3,0-2.35-5.8-2.35-12.95c0-7.15,1.05-12.95,2.35-12.95
		C258.33,37.18,259.38,42.98,259.38,50.13z"/>
	<path class="st0" d="M256.26,70.28c0,0-3.59,0.47-4.45,4.71c-0.86,4.24,5.23,7.22,8.75,3.91
		C264.08,75.59,262.17,69.22,256.26,70.28z"/>
	<path class="st0" d="M257.72,26c0.71-3.96,1.8-10.18,2.38-14.3c0.99-7.1-3.06-11.7-3.07-11.71l0,0l0,0l0,0l0,0
		c-0.01,0.01-4.06,4.61-3.07,11.71c0.58,4.12,1.67,10.34,2.38,14.3c-6.09-20.09-13.09-1.81-13.09-1.81c4.61-2.69,8.76-1,11.49,2.86
		c-0.05,0.11-0.08,0.23-0.08,0.35c0,0.34,0.21,0.63,0.5,0.76c-0.29,0.13-0.5,0.42-0.5,0.76c0,0.46,0.38,0.83,0.84,0.83h1.53l0,0
		h1.53c0.46,0,0.84-0.38,0.84-0.83c0-0.34-0.21-0.63-0.5-0.76c0.29-0.13,0.5-0.42,0.5-0.76c0-0.13-0.03-0.25-0.08-0.35
		c2.73-3.86,6.88-5.55,11.49-2.86C270.8,24.2,263.81,5.91,257.72,26z"/>
	<path class="st1" d="M491.31,68.02l-3.61,5.11c-0.71-1.15-1.97-1.92-3.43-1.92c-1.8,0-3.31,1.18-3.83,2.81H316.28h-1.11h-39.55
		c0,0-2.85-0.22-2.85,1.23c0,1.22,2.85,1.23,2.85,1.23h42.44h1.37h161.01c0.52,1.63,2.03,2.81,3.83,2.81c1.45,0,2.71-0.77,3.43-1.92
		l3.61,5.11l22.75-7.22L491.31,68.02z M490.98,75.24l2.23-3.31l14.21,3.31H490.98z"/>
	<path class="st1" d="M238.44,74.01h-39.55h-1.11H33.62c-0.52-1.63-2.03-2.81-3.83-2.81c-1.45,0-2.71,0.77-3.43,1.92l-3.61-5.11
		L0,75.24l22.75,7.22l3.61-5.11c0.71,1.15,1.97,1.92,3.43,1.92c1.8,0,3.31-1.19,3.83-2.81h161.01H196h42.44c0,0,2.85-0.01,2.85-1.23
		C241.29,73.79,238.44,74.01,238.44,74.01z M6.8,75.24l14.21-3.31l2.23,3.31H6.8z"/>
</g>
 </svg>
