
<svg version="1.1" id="Layer_1" xmlns="http://www.w3.org/2000/svg" xmlns:xlink="http://www.w3.org/1999/xlink" x="0px" y="0px"
	 viewBox="0 0 138.29 138.43" width="250" height="250" style="enable-background:new 0 0 138.29 138.43;" xml:space="preserve">
<style type="text/css">
	.st0{fill:#D7C57D;}
	.st1{fill-rule:evenodd;clip-rule:evenodd;fill:#D7C57D;}
</style>
<g>
	<g>
		<path class="st0" d="M84.02,114.18c0,0-1.27-11.37,11.1-12.65c0,0-4.73-2.03-8.26,1.45c0,0-1.25-1.97-2.66,0.98
			c-1.41,2.94-1.31,6.49-1.31,6.49s-0.37-1.9-0.31-5.15c0,0-2.02,1.26-0.85,4.57c1.17,3.3,1.36,3.74,1.36,3.74L84.02,114.18z"/>
		<path class="st0" d="M81.55,113.24c2.73,2.36,2.72,5.41,2.72,5.41l0.8-0.69c0,0-0.99-8.92-8.59-9.53
			c-4.22-0.34-6.74,3.14-6.86,6.63l0,0c0,0,0,0,0,0.01c-0.01,0.23-0.01,0.47,0.01,0.71c-0.05,1.08-0.39,3.01-2.27,3.14
			c0,0,1.2,2.24,3.55,0.48c0.01,0,0.02-0.01,0.02-0.02c0.92,1.18,2.33,2.04,4.29,2.3c5.35,0.56,7.74-6.91,3.4-8.96
			c0,0-0.33,3.06-3.15,2.05c-1.95-0.86-1.14-3.61,0.69-3.53c0,0-0.43,1.04,0.73,1.66C76.9,112.89,78.81,110.87,81.55,113.24z
			 M72.76,111.45c-2.45,2.82,0.71,8.68,5.39,5.36c0,0-2.42,3.46-5.76,0.32c-3.1-2.93,0.52-9.44,6.24-7.13
			c0.09,0.03,0.14,0.05,0.14,0.05c-0.05-0.02-0.09-0.04-0.14-0.05C77.97,109.74,75.03,108.83,72.76,111.45z"/>
		<path class="st0" d="M96.02,126.37c0,0-9.27-2.93-6.92-12.45c0,0-2.53,2.68-0.71,6.75C90.21,124.74,95.05,126.33,96.02,126.37z"/>
		<path class="st0" d="M87.28,120.21c-1.11-2.52-0.91-5.02,0.08-7c0.83-0.93,2.47-2.17,4.24-0.33c0,0,1.87-2.11,0.07-3.41
			c1.34-0.4,2.81-0.37,4.28,0.25c5.69,2.4,1.46,9.44-2.01,5.58c0,0-2.47,2.03,0.36,5.1c2.83,3.07,9.74,1.1,9.72-5.34
			c0,0,2.81,1,3.51-1.42c-1.53-0.08-2.31-1.01-4.16-4.75c-2.19-4.43-10.15-8.75-16.5-1.88c-0.95,1.03-1.7,2.25-2.23,3.56
			c-0.2,0.55-1.89,5.49,0.27,10.01c0.03,0.06,0.06,0.13,0.09,0.19c0.04,0.07,0.07,0.13,0.1,0.2c0.04,0.08,0.09,0.16,0.13,0.24
			c0.07,0.13,0.15,0.26,0.23,0.39c1.79,2.91,4.8,5.27,8.77,4.99l1.77-0.21C96.02,126.37,90.15,126.72,87.28,120.21z M85.83,112.04
			c5.71-11.19,15.9-5.07,16.52,0.3c0.69,6-4.83,7.04-4.83,7.04c2.89-0.95,6.44-6.73,1.49-10.9
			C91.2,102.64,85.83,112.04,85.83,112.04z"/>
	</g>
</g>
<g>
	<g>
		<path class="st0" d="M114.06,84.19c0,0-11.37-1.27-12.65,11.1c0,0-2.03-4.73,1.45-8.26c0,0-1.97-1.25,0.98-2.66
			c2.94-1.41,6.49-1.31,6.49-1.31s-1.9-0.37-5.15-0.31c0,0,1.26-2.02,4.57-0.85c3.3,1.17,3.74,1.36,3.74,1.36L114.06,84.19z"/>
		<path class="st0" d="M112.78,77.06c-0.61-1.16-1.66-0.73-1.66-0.73c-0.08-1.83,2.67-2.64,3.53-0.69c1.02,2.82-2.04,3.14-2.04,3.14
			c2.05,4.34,9.52,1.95,8.96-3.4c-0.26-1.96-1.13-3.37-2.3-4.29c0.01-0.01,0.01-0.01,0.02-0.02c1.75-2.35-0.48-3.55-0.48-3.55
			c-0.13,1.88-2.06,2.22-3.14,2.27c-0.24-0.02-0.47-0.02-0.7-0.01c-0.01,0-0.01,0-0.01,0l0,0c-3.48,0.12-6.97,2.63-6.63,6.86
			c0.61,7.6,9.53,8.59,9.53,8.59l0.69-0.79c0,0-3.05,0.01-5.41-2.72C110.75,78.98,112.78,77.06,112.78,77.06z M109.87,78.79
			c0.02,0.04,0.04,0.09,0.06,0.13C109.93,78.92,109.91,78.87,109.87,78.79c-2.31-5.72,4.2-9.34,7.13-6.24
			c3.15,3.34-0.32,5.76-0.32,5.76c3.33-4.68-2.53-7.83-5.36-5.38C108.71,75.19,109.63,78.13,109.87,78.79z"/>
		<path class="st0" d="M126.25,96.19c0,0-2.93-9.27-12.45-6.92c0,0,2.69-2.53,6.75-0.71C124.62,90.37,126.21,95.21,126.25,96.19z"/>
		<path class="st0" d="M126.25,96.19l0.21-1.77c0.28-3.97-2.08-6.98-4.99-8.77c-0.13-0.08-0.26-0.16-0.39-0.23
			c-0.08-0.04-0.16-0.09-0.24-0.13c-0.06-0.04-0.13-0.07-0.2-0.1c-0.06-0.03-0.12-0.06-0.19-0.09c-4.53-2.16-9.46-0.48-10.01-0.27
			c-1.32,0.53-2.54,1.28-3.57,2.23c-6.86,6.35-2.55,14.31,1.88,16.5c3.75,1.85,4.67,2.63,4.75,4.16c2.42-0.7,1.42-3.51,1.42-3.51
			c6.45,0.02,8.41-6.89,5.34-9.72c-3.07-2.83-5.1-0.36-5.1-0.36c3.86,3.47-3.18,7.7-5.58,2.01c-0.62-1.47-0.65-2.95-0.25-4.28
			c1.3,1.8,3.41-0.07,3.41-0.07c-1.84-1.78-0.6-3.41,0.33-4.25c1.98-0.99,4.48-1.19,7-0.08C126.6,90.32,126.25,96.19,126.25,96.19z
			 M108.37,99.18c4.17,4.94,9.95,1.4,10.9-1.49c0,0-1.04,5.52-7.04,4.83c-5.38-0.62-11.49-10.81-0.3-16.52
			C111.92,86,102.52,91.37,108.37,99.18z"/>
	</g>
</g>
<path class="st0" d="M116.01,126.52c0,0,0.74,0.56,1.44-0.25c0.69-0.8-0.45-3.05-0.45-3.05s1.04,2.08,3.27,2.87
	c2.24,0.78,5.7,0.19,5.7,0.19s0.6-3.46-0.19-5.7c-0.78-2.23-2.87-3.28-2.87-3.28s2.25,1.14,3.05,0.45c0.8-0.69,0.24-1.43,0.24-1.43
	c3.93-2.48,0.62-5.23,0.62-5.23s-0.28,3-3.37,2.29c-3.09-0.71-3.9,0.59-3.9,0.59c0.18-1.41-0.53-1.98-0.53-1.98
	c-2.98,1.92-1.82,5.53-1.82,5.53s-3.61-1.15-5.53,1.82c0,0,0.57,0.71,1.98,0.53c0,0-1.29,0.81-0.58,3.9
	c0.71,3.09-2.29,3.37-2.29,3.37S113.53,130.44,116.01,126.52z M118.2,118.51c5.59,1.9,6.32,6.32,6.32,6.32
	C119.53,123.36,118.2,118.51,118.2,118.51z"/>
<path class="st0" d="M76.55,76.67c0,0-0.03,9.26,3.83,10.36c4.4,1.26,7.32,3.8,7.32,3.8c-4.65-3.08-10.27-1.85-10.27-1.85
	c1.16,0.41,1.51,1.51,1.51,1.51c-1.79,0.79-3.99,0.53-3.99,0.53c1.48,2.92,4.65,3.14,4.65,3.14c-4.14,3.96-0.94,6.78-0.94,6.78
	c5.18-9.14,16.77-3.39,16.77-3.39c1.51,0.88,2.07,0.06,2.07,0.06s0.82-0.57-0.06-2.07c0,0-5.74-11.59,3.39-16.77
	c0,0-2.83-3.2-6.79,0.94c0,0-0.22-3.17-3.14-4.65c0,0,0.25,2.2-0.53,3.99c0,0-1.1-0.35-1.51-1.51c0,0-1.23,5.62,1.85,10.27
	c0,0-2.54-2.92-3.8-7.32C85.81,76.64,76.55,76.67,76.55,76.67"/>
<path class="st0" d="M94.35,93.88c-4.43-7.44-3.21-12.06-3.21-12.06c0.24,1.65,1.09,3.57,1.09,3.57c0.82-2.99,3.16-4.13,3.16-4.13
	C91.38,87.34,94.35,93.88,94.35,93.88z"/>
<path class="st0" d="M79.61,79.73c0,0,5.31-0.16,9.8,9.8C89.41,89.53,80.64,85.73,79.61,79.73z"/>
<path class="st0" d="M81.14,95.5c0,0,1.14-2.33,4.13-3.16c0,0-1.91-0.85-3.56-1.08c0,0,4.62-1.23,12.06,3.2
	C93.76,94.46,87.22,91.5,81.14,95.5z"/>
<g>
	<g>
		<path class="st0" d="M92.22,125.83l-0.44,0.56c-0.11-0.09-11.81-8.25-30.34,2.77c-11.78,7.01-18.36,4.27-21.23,2.02
			c-4.39-3.45-6.7-10.01-4.81-16.21c1.55-5.08,5.95-8.19,11.08-8.26c5.22-0.07,10.51,2.97,11.78,6.78l-1.13,0.38
			c-1.1-3.3-5.97-6.03-10.64-5.97c-2.69,0.04-8.29,0.96-10.15,7.2c-1.88,6.33,0.64,12.48,4.59,15.57
			c4.54,3.56,11.96,2.77,20.24-2.15C80.45,117.08,92.11,125.74,92.22,125.83z"/>
	</g>
	<g>
		<path class="st0" d="M87.15,123.92l0.22,0.51c-0.12-0.05-12.43-4.49-21.08,4.33c-4.37,4.46-9.06,6.41-12.99,4.52
			c-3.06-1.48-4.82-4.8-4.39-8.26c0.39-3.15,2.17-5.22,4.88-5.71c2.66-0.48,5.53,0.8,6.68,2.99l-1.06,0.55
			c-0.9-1.72-3.27-2.75-5.41-2.37c-2.16,0.39-3.58,2.1-3.91,4.69c-0.37,2.96,0.98,5.99,3.58,7.25c3.45,1.67,8.03,0.02,12.03-4.06
			C74.94,118.94,87.03,123.87,87.15,123.92z"/>
	</g>
	<path class="st0" d="M56.7,110.9c0,0,3.44,3.72,1.07,5.38c-2.37,1.65-2.5-0.11-1.86-2.45c0.64-2.34-3.08-4.37-3.08-4.37L56.7,110.9
		z"/>
	<path class="st0" d="M60.12,121.83c0,0,2.05,2.03-0.24,3.57c-2.28,1.53-0.43-2.77-1.64-3.78c-1.22-1.01-1.56-0.94-1.56-0.94
		S58.6,120.61,60.12,121.83z"/>
	<path class="st0" d="M49.3,128.74c0,0-1.15-2.55,0.15-5.96c1.31-3.42,0.01-5.03,0.01-5.03s1.3,0.39,1.69,1.42
		c0,0,0.23-0.91,1.34-0.89c1.11,0.03,1.66-0.94,1.66-0.94s-0.06,1.77-1.58,2.84C51.05,121.23,48.5,124.73,49.3,128.74z"/>
	<path class="st0" d="M37.73,128.61c0,0-2.24-3.02-2.61-5.75c-0.36-2.72-1.42-5.19-3.93-6.16c0,0,1.1-0.41,2.16,0.07
		c0,0-1.03-1.33,0.4-2.84c1.44-1.51,1.07-2.5,1.07-2.5s1.12,0.86,0.92,2.56c-0.2,1.69-0.5,4.21-0.5,4.21S35.3,124.24,37.73,128.61z"
		/>
	<path class="st0" d="M50.52,132.68c0,0-8.55,1.78-12.4-7.36c0,0,0.7,1.25,1.94,1.51c1.24,0.26,2.65,1.47,2.95,3.2
		c0,0,0.19-1.89,1.92-2.33C44.93,127.7,43.42,132.65,50.52,132.68z"/>
	<path class="st0" d="M65.55,129.49c0,0-1.7,1.16-2.31,1.72c-1.47,1.35-4.89,4.2-8.48,3.41c0,0,1.44,0.46,2.28,1.02
		c0.66,0.44,1.66,0.8,2.37-0.23c0,0-0.84,1.51,0.07,3.02C59.48,138.43,61.86,133.74,65.55,129.49z"/>
</g>
<path class="st0" d="M114.22,112.97c0,0-0.19,1.45-1.9,1.8c-1.71,0.35-2.92-2.12-1.58-3.54
	C112.08,109.81,114.65,110.59,114.22,112.97z"/>
<path class="st1" d="M15.79,120.21l2.51,3.54c0.49-0.8,1.37-1.34,2.38-1.34c1.25,0,2.29,0.82,2.66,1.95h13.21v1.71H23.34
	c-0.37,1.13-1.41,1.95-2.66,1.95c-1.01,0-1.88-0.54-2.38-1.34l-2.51,3.54L0,125.22L15.79,120.21z"/>
<path class="st1" d="M125.08,0l5.01,15.79l-3.54,2.51c0.8,0.49,1.34,1.37,1.34,2.38c0,1.25-0.82,2.29-1.95,2.66v13.22h-1.71V23.34
	c-1.13-0.36-1.95-1.41-1.95-2.66c0-1.01,0.54-1.88,1.34-2.38l-3.54-2.51L125.08,0"/>
<g>
	<g>
		<path class="st0" d="M125.69,92.23l0.56-0.43c-0.09-0.11-8.25-11.81,2.77-30.34c7.01-11.78,4.27-18.36,2.02-21.23
			c-3.45-4.39-10.02-6.7-16.21-4.81c-5.08,1.55-8.19,5.95-8.26,11.08c-0.07,5.22,2.97,10.51,6.78,11.78l0.37-1.13
			c-3.3-1.1-6.03-5.97-5.97-10.64c0.04-2.69,0.96-8.3,7.2-10.15c6.33-1.88,12.47,0.64,15.57,4.59c3.57,4.54,2.77,11.96-2.15,20.24
			C116.94,80.45,125.6,92.11,125.69,92.23z"/>
	</g>
	<g>
		<path class="st0" d="M123.78,87.15l0.51,0.22c-0.05-0.12-4.49-12.43,4.33-21.08c4.46-4.37,6.41-9.06,4.52-12.99
			c-1.48-3.06-4.8-4.82-8.26-4.39c-3.15,0.39-5.22,2.17-5.71,4.87c-0.48,2.67,0.8,5.54,2.98,6.68l0.56-1.06
			c-1.72-0.9-2.75-3.27-2.37-5.41c0.39-2.16,2.1-3.58,4.69-3.91c2.95-0.37,5.99,0.99,7.25,3.58c1.66,3.45,0.02,8.03-4.06,12.03
			C118.8,74.94,123.73,87.03,123.78,87.15z"/>
	</g>
	<path class="st0" d="M110.76,56.7c0,0,3.72,3.44,5.38,1.07c1.65-2.37-0.11-2.5-2.45-1.86c-2.34,0.64-4.37-3.08-4.37-3.08
		L110.76,56.7z"/>
	<path class="st0" d="M121.69,60.12c0,0,2.03,2.05,3.56-0.24c1.54-2.28-2.77-0.43-3.78-1.65c-1.01-1.22-0.94-1.56-0.94-1.56
		S120.47,58.6,121.69,60.12z"/>
	<path class="st0" d="M128.6,49.3c0,0-2.55-1.15-5.97,0.15c-3.42,1.31-5.03,0.01-5.03,0.01s0.39,1.3,1.42,1.69
		c0,0-0.91,0.23-0.89,1.34c0.03,1.11-0.94,1.66-0.94,1.66s1.77-0.06,2.84-1.59C121.09,51.05,124.59,48.5,128.6,49.3z"/>
	<path class="st0" d="M128.47,37.73c0,0-3.02-2.24-5.75-2.61c-2.73-0.36-5.19-1.42-6.16-3.93c0,0-0.41,1.1,0.07,2.16
		c0,0-1.33-1.03-2.84,0.4c-1.51,1.43-2.5,1.07-2.5,1.07s0.87,1.12,2.56,0.92c1.69-0.2,4.21-0.5,4.21-0.5S124.1,35.3,128.47,37.73z"
		/>
	<path class="st0" d="M132.54,50.52c0,0,1.78-8.55-7.36-12.4c0,0,1.25,0.7,1.52,1.94c0.26,1.24,1.47,2.65,3.2,2.95
		c0,0-1.89,0.19-2.33,1.92C127.56,44.93,132.51,43.42,132.54,50.52z"/>
	<path class="st0" d="M129.32,65.58c0,0,1.19-1.72,1.75-2.33c1.35-1.47,4.2-4.9,3.41-8.48c0,0,0.46,1.44,1.02,2.28
		c0.44,0.66,0.8,1.66-0.23,2.37c0,0,1.51-0.84,3.02,0.07C138.29,59.49,133.57,61.9,129.32,65.58z"/>
</g>
<g>
</g>
<g>
</g>
<g>
</g>
<g>
</g>
<g>
</g>
<g>
</g>
<g>
</g>
<g>
</g>
<g>
</g>
<g>
</g>
<g>
</g>
<g>
</g>
<g>
</g>
<g>
</g>
<g>
</g>
</svg>
