
<svg version="1.1" id="Layer_1" xmlns="http://www.w3.org/2000/svg" xmlns:xlink="http://www.w3.org/1999/xlink" x="0px" y="0px"
	 viewBox="0 0 159.21 56.09" width="100" height="100" style="enable-background:new 0 0 159.21 56.09;" xml:space="preserve">
<style type="text/css">
	.st0{fill-rule:evenodd;clip-rule:evenodd;fill:url(#SVGID_1_);}
	.st1{fill-rule:evenodd;clip-rule:evenodd;fill:url(#vintage_1_);}
</style>
<linearGradient id="SVGID_1_" gradientUnits="userSpaceOnUse" x1="-0.7811" y1="28.0453" x2="160.4805" y2="28.0453">
	<stop  offset="0" style="stop-color:#CABE90"/>
	<stop  offset="0.41" style="stop-color:#F8EDD6"/>
	<stop  offset="0.65" style="stop-color:#F3E7CF"/>
	<stop  offset="1" style="stop-color:#C8BE8C"/>
</linearGradient>
<path class="st0" d="M11.66,7.08h5.54V6.12c0-2.65,2.17-4.82,4.82-4.82h115.16c2.65,0,4.82,2.17,4.82,4.82v0.96h5.54v7.95h2.65
	c4.24,0,7.71,3.47,7.71,7.71v10.6c0,4.24-3.47,7.71-7.71,7.71h-2.65v7.95H142v0.96c0,2.65-2.17,4.82-4.82,4.82H22.02
	c-2.65,0-4.82-2.17-4.82-4.82v-0.96h-5.54v-7.95H9.01c-4.24,0-7.71-3.47-7.71-7.71v-10.6c0-4.24,3.47-7.71,7.71-7.71h2.65V7.08z"/>
<linearGradient id="vintage_1_" gradientUnits="userSpaceOnUse" x1="113.6337" y1="62.0755" x2="45.5627" y2="-5.9955">
	<stop  offset="0" style="stop-color:#482A0F"/>
	<stop  offset="0.1" style="stop-color:#A77129"/>
	<stop  offset="0.15" style="stop-color:#FFFFFF"/>
	<stop  offset="0.22" style="stop-color:#DA9E41"/>
	<stop  offset="0.34" style="stop-color:#8E5923"/>
	<stop  offset="0.5" style="stop-color:#D8A64D"/>
	<stop  offset="0.66" style="stop-color:#F5E380"/>
	<stop  offset="0.72" style="stop-color:#DAC164"/>
	<stop  offset="0.77" style="stop-color:#FFFFFF"/>
	<stop  offset="0.83" style="stop-color:#A0752B"/>
	<stop  offset="1" style="stop-color:#664219"/>
</linearGradient>
<path id="vintage" class="st1" d="M11.66,5.78h4.25C16,4.23,16.66,2.83,17.7,1.8C18.81,0.69,20.34,0,22.02,0h115.16
	c1.68,0,3.21,0.69,4.32,1.8l0,0l0,0c1.03,1.04,1.7,2.44,1.79,3.98h4.25h1.3v1.3v6.65h1.35c2.48,0,4.73,1.01,6.37,2.65
	c1.63,1.63,2.65,3.89,2.65,6.37v10.6c0,2.48-1.01,4.73-2.65,6.37c-1.63,1.63-3.89,2.65-6.37,2.65h-1.35v6.65v1.3h-1.3h-4.25
	c-0.09,1.55-0.75,2.95-1.79,3.99c-1.11,1.11-2.64,1.8-4.32,1.8H22.02c-1.68,0-3.21-0.69-4.32-1.8l0,0c-1.03-1.03-1.7-2.43-1.79-3.98
	h-4.25h-1.3v-1.3v-6.65H9.01c-2.48,0-4.73-1.01-6.37-2.65C1.01,38.08,0,35.82,0,33.35v-10.6c0-2.48,1.01-4.73,2.65-6.37
	c1.63-1.63,3.89-2.65,6.37-2.65h1.35V7.08v-1.3H11.66L11.66,5.78z M17.2,8.39h-4.24v6.65v1.3h-1.3H9.01c-1.76,0-3.36,0.72-4.52,1.88
	c-1.16,1.16-1.88,2.76-1.88,4.52v10.6c0,1.76,0.72,3.36,1.88,4.52c1.16,1.16,2.76,1.88,4.52,1.88h2.65h1.3v1.3v6.65h4.24h1.3v1.3
	v0.96c0,0.97,0.4,1.85,1.03,2.49c0.64,0.64,1.52,1.03,2.49,1.03h115.16c0.97,0,1.85-0.4,2.48-1.03c0.64-0.64,1.03-1.52,1.03-2.48
	v-0.96v-1.3h1.3h4.24v-6.65v-1.3h1.3h2.65c1.76,0,3.36-0.72,4.52-1.88c1.16-1.16,1.88-2.76,1.88-4.52v-10.6
	c0-1.76-0.72-3.36-1.88-4.52c-1.16-1.16-2.76-1.88-4.52-1.88h-2.65h-1.3v-1.3V8.39H142h-1.3v-1.3V6.12c0-0.97-0.39-1.85-1.03-2.48
	l0-0.01c-0.63-0.63-1.51-1.03-2.48-1.03H22.02c-0.97,0-1.84,0.4-2.48,1.03c-0.64,0.64-1.03,1.52-1.03,2.48v0.96v1.3H17.2z"/>
<g>
</g>
<g>
</g>
<g>
</g>
<g>
</g>
<g>
</g>
<g>
</g>
<g>
</g>
<g>
</g>
<g>
</g>
<g>
</g>
<g>
</g>
<g>
</g>
<g>
</g>
<g>
</g>
<g>
</g>
</svg>
