
<svg version="1.1" id="Layer_1" xmlns="http://www.w3.org/2000/svg" xmlns:xlink="http://www.w3.org/1999/xlink" x="0px" y="0px"
	 viewBox="0 0 138.29 138.43"  width="250" height="250" style="enable-background:new 0 0 138.29 138.43;" xml:space="preserve">
<style type="text/css">
	.st0{fill:#D7C57D;}
	.st1{fill-rule:evenodd;clip-rule:evenodd;fill:#D7C57D;}
</style>
<g>
	<g>
		<path class="st0" d="M54.26,24.25c0,0,1.27,11.37-11.1,12.65c0,0,4.73,2.03,8.26-1.45c0,0,1.25,1.97,2.66-0.98
			c1.41-2.94,1.31-6.49,1.31-6.49s0.37,1.9,0.31,5.15c0,0,2.02-1.26,0.85-4.57c-1.17-3.3-1.36-3.74-1.36-3.74L54.26,24.25z"/>
		<path class="st0" d="M56.74,25.19c-2.73-2.36-2.72-5.41-2.72-5.41l-0.8,0.69c0,0,0.99,8.92,8.59,9.53
			c4.23,0.34,6.74-3.14,6.86-6.63l0,0c0,0,0,0,0-0.01c0.01-0.23,0.01-0.47-0.01-0.71c0.05-1.08,0.39-3.01,2.27-3.14
			c0,0-1.2-2.24-3.55-0.48c-0.01,0-0.02,0.01-0.02,0.02c-0.92-1.18-2.33-2.04-4.29-2.3c-5.35-0.56-7.74,6.91-3.4,8.96
			c0,0,0.33-3.06,3.15-2.05c1.95,0.86,1.14,3.61-0.69,3.53c0,0,0.43-1.04-0.73-1.66C61.39,25.54,59.48,27.56,56.74,25.19z
			 M65.53,26.98c2.45-2.82-0.71-8.68-5.39-5.36c0,0,2.42-3.46,5.76-0.32c3.1,2.93-0.52,9.44-6.24,7.13
			c-0.09-0.03-0.14-0.05-0.14-0.05c0.05,0.02,0.09,0.04,0.14,0.05C60.32,28.69,63.26,29.6,65.53,26.98z"/>
		<path class="st0" d="M42.26,12.06c0,0,9.27,2.93,6.92,12.45c0,0,2.53-2.68,0.71-6.75C48.08,13.69,43.24,12.1,42.26,12.06z"/>
		<path class="st0" d="M51,18.22c1.11,2.52,0.91,5.02-0.08,7c-0.83,0.93-2.47,2.17-4.24,0.33c0,0-1.87,2.11-0.07,3.41
			c-1.34,0.4-2.81,0.37-4.28-0.25c-5.69-2.4-1.46-9.44,2.01-5.58c0,0,2.47-2.03-0.36-5.1c-2.83-3.07-9.74-1.1-9.72,5.34
			c0,0-2.81-1-3.51,1.42c1.53,0.08,2.31,1.01,4.16,4.75c2.19,4.43,10.15,8.75,16.5,1.88c0.95-1.03,1.7-2.25,2.23-3.56
			c0.2-0.55,1.89-5.49-0.27-10.01c-0.03-0.06-0.06-0.13-0.09-0.19c-0.04-0.07-0.07-0.13-0.1-0.2c-0.04-0.08-0.09-0.16-0.13-0.24
			c-0.07-0.13-0.15-0.26-0.23-0.39c-1.79-2.91-4.8-5.27-8.77-4.99l-1.77,0.21C42.26,12.06,48.13,11.71,51,18.22z M52.46,26.39
			c-5.71,11.19-15.9,5.07-16.52-0.3c-0.69-6,4.83-7.04,4.83-7.04c-2.89,0.95-6.44,6.73-1.49,10.9
			C47.09,35.79,52.46,26.39,52.46,26.39z"/>
	</g>
</g>
<g>
	<g>
		<path class="st0" d="M24.22,54.24c0,0,11.37,1.27,12.65-11.1c0,0,2.03,4.73-1.45,8.26c0,0,1.97,1.25-0.98,2.66
			c-2.94,1.41-6.49,1.31-6.49,1.31s1.9,0.37,5.15,0.31c0,0-1.26,2.02-4.57,0.85c-3.3-1.17-3.74-1.36-3.74-1.36L24.22,54.24z"/>
		<path class="st0" d="M25.51,61.37c0.61,1.16,1.66,0.73,1.66,0.73c0.08,1.83-2.67,2.64-3.53,0.69c-1.02-2.82,2.04-3.14,2.04-3.14
			c-2.05-4.34-9.52-1.95-8.96,3.4c0.26,1.96,1.13,3.37,2.3,4.29c-0.01,0.01-0.01,0.01-0.02,0.02c-1.75,2.35,0.48,3.55,0.48,3.55
			c0.13-1.88,2.06-2.22,3.14-2.27c0.24,0.02,0.47,0.02,0.7,0.01c0.01,0,0.01,0,0.01,0l0,0c3.48-0.12,6.97-2.63,6.63-6.86
			c-0.61-7.6-9.53-8.59-9.53-8.59L19.75,54c0,0,3.05-0.01,5.41,2.72C27.53,59.45,25.51,61.37,25.51,61.37z M28.42,59.64
			c-0.02-0.04-0.04-0.09-0.06-0.13C28.36,59.51,28.38,59.56,28.42,59.64c2.31,5.72-4.2,9.34-7.13,6.24
			c-3.15-3.34,0.32-5.76,0.32-5.76c-3.33,4.68,2.53,7.83,5.36,5.38C29.58,63.24,28.66,60.3,28.42,59.64z"/>
		<path class="st0" d="M12.03,42.24c0,0,2.93,9.27,12.45,6.92c0,0-2.69,2.53-6.75,0.71C13.66,48.06,12.08,43.22,12.03,42.24z"/>
		<path class="st0" d="M12.03,42.24l-0.21,1.77c-0.28,3.97,2.08,6.98,4.99,8.77c0.13,0.08,0.26,0.16,0.39,0.23
			c0.08,0.04,0.16,0.09,0.24,0.13c0.06,0.04,0.13,0.07,0.2,0.1c0.06,0.03,0.12,0.06,0.19,0.09c4.53,2.16,9.46,0.48,10.01,0.27
			c1.32-0.53,2.54-1.28,3.57-2.23c6.86-6.35,2.55-14.31-1.88-16.5c-3.75-1.85-4.67-2.63-4.75-4.16c-2.42,0.7-1.42,3.51-1.42,3.51
			c-6.45-0.02-8.41,6.89-5.34,9.72c3.07,2.83,5.1,0.36,5.1,0.36c-3.86-3.47,3.18-7.7,5.58-2.01c0.62,1.47,0.65,2.95,0.25,4.28
			c-1.3-1.8-3.41,0.07-3.41,0.07c1.84,1.78,0.6,3.41-0.33,4.25c-1.98,0.99-4.48,1.19-7,0.08C11.69,48.11,12.03,42.24,12.03,42.24z
			 M29.92,39.25c-4.17-4.94-9.95-1.4-10.9,1.49c0,0,1.04-5.52,7.04-4.83c5.38,0.62,11.49,10.81,0.3,16.52
			C26.36,52.43,35.77,47.06,29.92,39.25z"/>
	</g>
</g>
<path class="st0" d="M22.28,11.91c0,0-0.74-0.56-1.44,0.25c-0.69,0.8,0.45,3.05,0.45,3.05s-1.04-2.08-3.27-2.87
	c-2.24-0.78-5.7-0.19-5.7-0.19s-0.6,3.46,0.19,5.7c0.78,2.23,2.87,3.28,2.87,3.28s-2.25-1.14-3.05-0.45
	c-0.8,0.69-0.24,1.43-0.24,1.43c-3.93,2.48-0.62,5.23-0.62,5.23s0.28-3,3.37-2.29c3.09,0.71,3.9-0.59,3.9-0.59
	c-0.18,1.41,0.53,1.98,0.53,1.98c2.98-1.92,1.82-5.53,1.82-5.53s3.61,1.15,5.53-1.82c0,0-0.57-0.71-1.98-0.53
	c0,0,1.29-0.81,0.58-3.9c-0.71-3.09,2.29-3.37,2.29-3.37S24.76,7.99,22.28,11.91z M20.09,19.92c-5.59-1.9-6.32-6.32-6.32-6.32
	C18.76,15.07,20.09,19.92,20.09,19.92z"/>
<path class="st0" d="M61.74,61.76c0,0,0.03-9.26-3.83-10.36c-4.4-1.26-7.32-3.8-7.32-3.8c4.65,3.08,10.27,1.85,10.27,1.85
	c-1.16-0.41-1.51-1.51-1.51-1.51c1.79-0.79,3.99-0.53,3.99-0.53c-1.48-2.92-4.65-3.14-4.65-3.14c4.14-3.96,0.94-6.78,0.94-6.78
	c-5.18,9.14-16.77,3.39-16.77,3.39c-1.51-0.88-2.07-0.06-2.07-0.06s-0.82,0.57,0.06,2.07c0,0,5.74,11.59-3.39,16.77
	c0,0,2.83,3.2,6.79-0.94c0,0,0.22,3.17,3.14,4.65c0,0-0.25-2.2,0.53-3.99c0,0,1.1,0.35,1.51,1.51c0,0,1.23-5.62-1.85-10.27
	c0,0,2.54,2.92,3.8,7.32C52.48,61.79,61.74,61.76,61.74,61.76"/>
<path class="st0" d="M43.94,44.55c4.43,7.44,3.21,12.06,3.21,12.06c-0.24-1.65-1.09-3.57-1.09-3.57c-0.82,2.99-3.16,4.13-3.16,4.13
	C46.91,51.09,43.94,44.55,43.94,44.55z"/>
<path class="st0" d="M58.68,58.7c0,0-5.31,0.16-9.8-9.8C48.88,48.9,57.64,52.7,58.68,58.7z"/>
<path class="st0" d="M57.15,42.93c0,0-1.14,2.33-4.13,3.16c0,0,1.91,0.85,3.56,1.08c0,0-4.62,1.23-12.06-3.2
	C44.52,43.97,51.07,46.93,57.15,42.93z"/>
<g>
	<g>
		<path class="st0" d="M46.06,12.6l0.44-0.56c0.11,0.09,11.81,8.25,30.34-2.77C88.62,2.26,95.2,4.99,98.07,7.24
			c4.39,3.45,6.7,10.01,4.81,16.21c-1.55,5.08-5.95,8.19-11.08,8.26c-5.22,0.07-10.51-2.97-11.78-6.78l1.13-0.38
			c1.1,3.3,5.97,6.03,10.64,5.97c2.69-0.04,8.29-0.96,10.15-7.2c1.88-6.33-0.64-12.48-4.59-15.57C92.8,4.18,85.39,4.97,77.11,9.9
			C57.84,21.35,46.18,12.69,46.06,12.6z"/>
	</g>
	<g>
		<path class="st0" d="M51.14,14.51l-0.22-0.51c0.12,0.05,12.43,4.49,21.08-4.33c4.37-4.46,9.06-6.41,12.99-4.52
			c3.06,1.48,4.82,4.8,4.39,8.26c-0.39,3.15-2.17,5.22-4.88,5.71c-2.66,0.48-5.53-0.8-6.68-2.99l1.06-0.55
			c0.9,1.72,3.27,2.75,5.41,2.37c2.16-0.39,3.58-2.1,3.91-4.69c0.37-2.96-0.98-5.99-3.58-7.25c-3.45-1.67-8.03-0.02-12.03,4.06
			C63.35,19.49,51.26,14.56,51.14,14.51z"/>
	</g>
	<path class="st0" d="M81.59,27.53c0,0-3.44-3.72-1.07-5.38c2.37-1.65,2.5,0.11,1.86,2.45c-0.64,2.34,3.08,4.37,3.08,4.37
		L81.59,27.53z"/>
	<path class="st0" d="M78.17,16.6c0,0-2.05-2.03,0.24-3.57c2.28-1.53,0.43,2.77,1.64,3.78c1.22,1.01,1.56,0.94,1.56,0.94
		S79.69,17.82,78.17,16.6z"/>
	<path class="st0" d="M88.99,9.69c0,0,1.15,2.55-0.15,5.96c-1.31,3.42-0.01,5.03-0.01,5.03s-1.3-0.39-1.69-1.42
		c0,0-0.23,0.91-1.34,0.89c-1.11-0.03-1.66,0.94-1.66,0.94s0.06-1.77,1.58-2.84C87.24,17.2,89.79,13.7,88.99,9.69z"/>
	<path class="st0" d="M100.55,9.82c0,0,2.24,3.02,2.61,5.75c0.36,2.72,1.42,5.19,3.93,6.16c0,0-1.1,0.41-2.16-0.07
		c0,0,1.03,1.33-0.4,2.84c-1.44,1.51-1.07,2.5-1.07,2.5s-1.12-0.86-0.92-2.56c0.2-1.69,0.5-4.21,0.5-4.21S102.99,14.19,100.55,9.82z
		"/>
	<path class="st0" d="M87.77,5.75c0,0,8.55-1.78,12.4,7.36c0,0-0.7-1.25-1.94-1.51c-1.24-0.26-2.65-1.47-2.95-3.2
		c0,0-0.19,1.89-1.92,2.33C93.36,10.73,94.87,5.78,87.77,5.75z"/>
	<path class="st0" d="M72.73,8.94c0,0,1.7-1.16,2.31-1.72c1.47-1.35,4.89-4.2,8.48-3.41c0,0-1.44-0.46-2.28-1.02
		c-0.66-0.44-1.66-0.8-2.37,0.23c0,0,0.84-1.51-0.07-3.02C78.8,0,76.42,4.69,72.73,8.94z"/>
</g>
<path class="st0" d="M24.07,25.46c0,0,0.19-1.45,1.9-1.8c1.71-0.35,2.92,2.12,1.58,3.54C26.21,28.62,23.64,27.84,24.07,25.46z"/>
<path class="st1" d="M122.49,18.22l-2.51-3.54c-0.49,0.8-1.37,1.34-2.38,1.34c-1.25,0-2.29-0.82-2.66-1.95h-13.21v-1.71h13.21
	c0.37-1.13,1.41-1.95,2.66-1.95c1.01,0,1.88,0.54,2.38,1.34l2.51-3.54l15.79,5.01L122.49,18.22z"/>
<path class="st1" d="M13.21,138.43l-5.01-15.79l3.54-2.51c-0.8-0.49-1.34-1.37-1.34-2.38c0-1.25,0.82-2.29,1.95-2.66v-13.22h1.71
	v13.22c1.13,0.36,1.95,1.41,1.95,2.66c0,1.01-0.54,1.88-1.34,2.38l3.54,2.51L13.21,138.43"/>
<g>
	<g>
		<path class="st0" d="M12.6,46.2l-0.56,0.43c0.09,0.11,8.25,11.81-2.77,30.34C2.26,88.76,4.99,95.34,7.24,98.21
			c3.45,4.39,10.02,6.7,16.21,4.81c5.08-1.55,8.19-5.95,8.26-11.08c0.07-5.22-2.97-10.51-6.78-11.78l-0.37,1.13
			c3.3,1.1,6.03,5.97,5.97,10.64c-0.04,2.69-0.96,8.3-7.2,10.15c-6.33,1.88-12.47-0.64-15.57-4.59C4.18,92.94,4.97,85.53,9.9,77.24
			C21.35,57.98,12.69,46.32,12.6,46.2z"/>
	</g>
	<g>
		<path class="st0" d="M14.51,51.28L14,51.06c0.05,0.12,4.49,12.43-4.33,21.08c-4.46,4.37-6.41,9.06-4.52,12.99
			c1.48,3.06,4.8,4.82,8.26,4.39c3.15-0.39,5.22-2.17,5.71-4.87c0.48-2.67-0.8-5.54-2.98-6.68l-0.56,1.06
			c1.72,0.9,2.75,3.27,2.37,5.41c-0.39,2.16-2.1,3.58-4.69,3.91c-2.95,0.37-5.99-0.99-7.25-3.58c-1.66-3.45-0.02-8.03,4.06-12.03
			C19.49,63.49,14.56,51.4,14.51,51.28z"/>
	</g>
	<path class="st0" d="M27.53,81.73c0,0-3.72-3.44-5.38-1.07c-1.65,2.37,0.11,2.5,2.45,1.86c2.34-0.64,4.37,3.08,4.37,3.08
		L27.53,81.73z"/>
	<path class="st0" d="M16.6,78.31c0,0-2.03-2.05-3.56,0.24c-1.54,2.28,2.77,0.43,3.78,1.65c1.01,1.22,0.94,1.56,0.94,1.56
		S17.82,79.83,16.6,78.31z"/>
	<path class="st0" d="M9.69,89.13c0,0,2.55,1.15,5.97-0.15c3.42-1.31,5.03-0.01,5.03-0.01s-0.39-1.3-1.42-1.69
		c0,0,0.91-0.23,0.89-1.34c-0.03-1.11,0.94-1.66,0.94-1.66s-1.77,0.06-2.84,1.59C17.19,87.38,13.7,89.93,9.69,89.13z"/>
	<path class="st0" d="M9.82,100.7c0,0,3.02,2.24,5.75,2.61c2.73,0.36,5.19,1.42,6.16,3.93c0,0,0.41-1.1-0.07-2.16
		c0,0,1.33,1.03,2.84-0.4c1.51-1.43,2.5-1.07,2.5-1.07s-0.87-1.12-2.56-0.92c-1.69,0.2-4.21,0.5-4.21,0.5S14.19,103.13,9.82,100.7z"
		/>
	<path class="st0" d="M5.75,87.91c0,0-1.78,8.55,7.36,12.4c0,0-1.25-0.7-1.52-1.94c-0.26-1.24-1.47-2.65-3.2-2.95
		c0,0,1.89-0.19,2.33-1.92C10.73,93.5,5.78,95.01,5.75,87.91z"/>
	<path class="st0" d="M8.97,72.85c0,0-1.19,1.72-1.75,2.33c-1.35,1.47-4.2,4.9-3.41,8.48c0,0-0.46-1.44-1.02-2.28
		c-0.44-0.66-0.8-1.66,0.23-2.37c0,0-1.51,0.84-3.02-0.07C0,78.94,4.71,76.53,8.97,72.85z"/>
</g>
<g>
</g>
<g>
</g>
<g>
</g>
<g>
</g>
<g>
</g>
<g>
</g>
<g>
</g>
<g>
</g>
<g>
</g>
<g>
</g>
<g>
</g>
<g>
</g>
<g>
</g>
<g>
</g>
<g>
</g>
</svg>
